<?xml version="1.0" encoding="utf-8"?>
<!-- Generator: Adobe Illustrator 27.0.0, SVG Export Plug-In . SVG Version: 6.00 Build 0)  -->
<svg version="1.1" xmlns="http://www.w3.org/2000/svg" xmlns:xlink="http://www.w3.org/1999/xlink" x="0px" y="0px"
	 viewBox="0 0 800 800" style="enable-background:new 0 0 800 800;" xml:space="preserve">
<style type="text/css">
	.st0{fill:#FFFFFF;}
	.st1{fill:none;stroke:#000000;stroke-width:3;stroke-miterlimit:10;}
	.st2{fill:#F28080;}
	.st3{fill:#F2B90F;}
	.st4{fill:#D94141;}
	.st5{fill:none;stroke:#000000;stroke-width:2;stroke-miterlimit:10;}
</style>
<g id="Background">
	<rect id="square" class="st0" width="800" height="800"/>
</g>
<g id="Hen">
	<g id="leg_00000067928578356973280770000014908681723182096817_">
		<line class="st1" x1="608.43" y1="620.04" x2="619.24" y2="695.27"/>
		<line class="st1" x1="639.04" y1="706.57" x2="619.24" y2="695.27"/>
		<line class="st1" x1="613.59" y1="712.24" x2="619.24" y2="695.27"/>
		<line class="st1" x1="596.62" y1="706.6" x2="619.24" y2="695.27"/>
		<path d="M622.1,600.78c0.51,12.64-5.67,22.87-14,25.2c-3.8,1.06-8.82,0.7-13-2.09c-5.2-3.48-7.98-9.99-7.2-16.89
			C599.3,604.93,610.7,602.85,622.1,600.78z"/>
	</g>
	<g id="leg">
		<path d="M521.8,600.78c-0.51,12.64,5.67,22.87,14,25.2c3.8,1.06,8.82,0.7,13-2.09c5.2-3.48,7.98-9.99,7.2-16.89
			C544.6,604.93,533.2,602.85,521.8,600.78z"/>
		<line class="st1" x1="543" y1="682" x2="542" y2="614"/>
		<line class="st1" x1="543" y1="710" x2="543" y2="682"/>
		<line class="st1" x1="521" y1="696" x2="543" y2="682"/>
		<line class="st1" x1="565" y1="700" x2="543" y2="682"/>
	</g>
	<path class="st2" d="M416.79,466.5C315,442,209,290,420,453c-151-117-84.13-172.85,15.44,0.08C339,286,428,258.93,445.5,457.47
		L416.79,466.5z"/>
	<path class="st2" d="M598,349c-6-40,29.74-104,28.87,0c-0.87-88,58.67-49.58,24.9,13.21C684,303,730,327,672,381L598,349z"/>
	<polygon id="beak" class="st3" points="719.57,399.52 669.83,385.28 673.82,423.68 	"/>
	<path id="body" class="st4" d="M420,453c-14.6,12.74,21.77,94.25,86,138c12.61,8.59,27.71,18.63,50,22
		c52.84,7.98,93.32-29.52,98-34c35.21-33.66,38.26-77.22,40-102c1.71-24.41,4.5-64.24-22-96c-16.84-20.18-49.97-42.46-74-32
		c-19.98,8.7-28.93,37.97-32,48c-3.65,11.93-1.77,13.54-6,28c-4.04,13.8-9.83,33.59-22,44c-16.86,14.43-47.21,11.88-76-2
		C435.06,449.87,424.34,449.21,420,453z"/>
	<path id="eye" class="st5" d="M623,390c0.07,9.64,4.93,17.14,10,18c5.97,1.01,15.23-6.7,16-20"/>
</g>
</svg>
