<?xml version="1.0" encoding="utf-8"?>
<!-- Generator: Adobe Illustrator 27.0.0, SVG Export Plug-In . SVG Version: 6.00 Build 0)  -->
<svg version="1.1" id="Layer_1" xmlns="http://www.w3.org/2000/svg" xmlns:xlink="http://www.w3.org/1999/xlink" x="0px" y="0px"
	 viewBox="0 0 1200 800" style="enable-background:new 0 0 1200 800;" xml:space="preserve">
<style type="text/css">
	.st0{fill:#FFFFFF;}
	.st1{fill:#EBEADC;}
	.st2{fill:#3A0A0D;}
	.st3{fill:#700917;}
	.st4{fill:#4F070C;}
	.st5{fill:#B01B23;}
	.st6{fill:#820E19;}
	.st7{fill:#93151B;}
	.st8{fill:#470707;}
	.st9{fill:#DA2126;}
	.st10{fill:#C73430;}
	.st11{fill:#E8DDDD;}
	.st12{fill:#00050F;}
	.st13{fill:#850C18;}
	.st14{fill:#EA5F28;}
	.st15{fill:#FFB32B;}
	.st16{fill:#D6551A;}
	.st17{fill:#F09311;}
	.st18{fill:#FFCA69;}
	.st19{fill:#F59816;}
	.st20{fill:#FEBD3A;}
	.st21{fill:#FFB530;}
	.st22{fill:#F96800;}
	.st23{fill:#FFB93D;}
	.st24{fill:#FFC04F;}
	.st25{fill:#070301;}
</style>
<rect x="0" class="st0" width="1200" height="800"/>
<ellipse class="st1" cx="931.88" cy="586.96" rx="163.02" ry="21.61"/>
<path class="st1" d="M197.58,588.33c0,4.26-17.21,7.72-38.44,7.72c-21.23,0-38.44-3.46-38.44-7.72c0-4.26,17.21-7.72,38.44-7.72
	C180.37,580.61,197.58,584.07,197.58,588.33z"/>
<path class="st1" d="M352.01,588.08c0,3.89-13.59,7.05-30.34,7.05c-16.76,0-30.34-3.16-30.34-7.05c0-3.89,13.59-7.05,30.34-7.05
	C338.42,581.03,352.01,584.18,352.01,588.08z"/>
<ellipse class="st1" cx="560.12" cy="588.12" rx="38.59" ry="6.44"/>
<ellipse class="st1" cx="453.23" cy="588.12" rx="39.91" ry="6.66"/>
<ellipse class="st1" cx="686.11" cy="588.09" rx="44.69" ry="7.46"/>
<g>
	<g>
		<g>
			<path class="st2" d="M1061.8,552.64c-0.8-1.43-2.6-1.94-4.03-1.15c-6.6,3.68-14.39,5.95-21.31,7.21
				c10.68-5.03,22.44-12.36,26.15-19.82c0.73-1.46,0.13-3.24-1.33-3.97c-1.47-0.73-3.24-0.14-3.97,1.33
				c-3.04,6.1-13.96,12.66-23.61,17.22c5.77-5.7,11.03-12.77,11.48-19.55c0.11-1.63-1.14-3.04-2.76-3.15
				c-1.63-0.11-3.04,1.12-3.15,2.76c-0.63,9.44-15.51,21.54-21.41,25.22l-45.91-34.95l-12.81-49.1c-0.41-1.58-2.03-2.53-3.61-2.12
				c-1.58,0.41-2.53,2.03-2.12,3.61l13.07,50.09c0.17,0.64,0.55,1.21,1.07,1.61l45.98,35.01c-3.59,4.58-9.37,9.45-14.65,12.2
				c-1.45,0.76-2.01,2.55-1.25,4c0.48,0.91,1.36,1.47,2.31,1.57c0.56,0.06,1.15-0.04,1.69-0.32c6.4-3.34,13.22-9.21,17.29-14.75
				c0.25,0.03,0.5,0.07,0.78,0.1c8.62,0.93,27.57-1.57,40.95-9.02C1062.08,555.87,1062.59,554.07,1061.8,552.64z"/>
			<path class="st3" d="M985.22,459.14c-2.12-9.66-6.68-14.74-13.97-15.52c-4.58-0.49-9.64,0.69-15,1.95
				c-1.41,0.33-2.85,0.66-4.29,0.97c-1.45,0.31-2.89,0.58-4.32,0.86c-7.98,1.53-15.51,2.98-19.31,8.75
				c-2.46,3.75-2.96,8.8-1.49,15.45c4.02,18.35,19.65,35.76,33.45,37.25c1.82,0.2,3.58,0.11,5.26-0.24
				c4.97-1.06,9.54-4.62,13.19-10.29C985.47,487.86,988.08,472.12,985.22,459.14z"/>
		</g>
		<g>
			<path class="st4" d="M881.27,585.06c-5.92-0.23-14.91-3.5-23.08-7.28c5.57,1.28,10.95,2.29,14.69,2.69
				c1.78,0.19,3.2,0.25,4.08,0.13c1.62-0.21,2.76-1.7,2.55-3.32c-0.21-1.62-1.7-2.77-3.32-2.55c-4.48,0.58-29.84-5.52-36.44-8.55
				l8.42-56.16l31.73-35.15c1.09-1.21,1-3.08-0.21-4.18c-1.21-1.09-3.09-1-4.18,0.22l-32.32,35.81c-0.39,0.43-0.64,0.97-0.73,1.54
				l-8.4,56.03c-7.83-1.44-13.35-3.8-14.67-6.36c-0.75-1.45-2.54-2.02-3.99-1.27c-1.45,0.75-2.02,2.54-1.27,3.99
				c2.9,5.62,12.15,8.35,20.09,9.68c3.34,8.61,19.3,26.5,30.52,27.85c0.01,0,0.03,0,0.04,0c1.61,0.17,3.06-0.98,3.26-2.59
				c0.2-1.62-0.96-3.1-2.58-3.3c-5.35-0.64-12.79-7.17-18.33-13.46c2.25,1.22,4.34,2.27,5.85,3c5.07,2.46,17.31,8.03,26.36,9.01
				c0.59,0.06,1.16,0.11,1.72,0.13c1.63,0.07,3.01-1.21,3.08-2.84C884.18,586.51,882.9,585.13,881.27,585.06z"/>
			<path class="st5" d="M909.16,468.03c-1.17-6.78-7.46-11.11-14.1-15.69c-1.19-0.82-2.4-1.66-3.6-2.52
				c-1.2-0.86-2.38-1.74-3.54-2.62c-5.41-4.06-10.52-7.89-16.05-8.49c-5.76-0.62-10.97,2.42-15.92,9.3
				c-5.75,7.99-9.52,18.94-10.07,29.3c-0.59,11.05,2.48,19.83,8.42,24.11c2.4,1.73,5.33,2.79,8.71,3.15
				c13.39,1.44,31.55-8.1,41.34-21.72C908.35,477.31,909.92,472.46,909.16,468.03z"/>
		</g>
		<g>
			<g>
				<g>
					<path class="st6" d="M833.53,313.22c-10.78-48.52,34.08-75.88,45.67-10.94c6.39,35.79,26.13,106.25-6.52,110.46
						c-23.07,2.78-40.8,8.08-61.74-7.56c-7.45-5.57-15.48-22.8-2.37-18.3c-12.18-7.23-15.98-30.69,0.12-20.9
						c-13.91-13.7-13.66-34.29,4.95-23.38C797.46,318.73,815.26,282.95,833.53,313.22z"/>
				</g>
			</g>
		</g>
		<g>
			<g>
				<g>
					<g>
						<g>
							<path class="st5" d="M870.48,354.11c1.23-18.57,20.43-32.46,22.07-11.2c1.12,14.55,4.45,20.76,17.34,18.97
								c20.76-2.88,9.18,38.35-8.53,55.12c-17.73,16.51-32.81,23.26-62.81,8.05c-8.42-4.27-8.96-20.6,3.32-19.5
								c-10.27-2.24-6.35-20.55,5.12-17.63c-7.79-6.85,2.54-23.07,10.29-18.09C851.75,361.33,864.98,345.38,870.48,354.11z"/>
						</g>
						<path class="st5" d="M1022.42,434.66c-14.26,34.11-65.65,61.71-112.88,56.37c-46.51-5.26-67.63-35.68-59.23-71.87
							c8.41-36.19,52.79-67.56,104.85-61.29C1001.62,363.47,1036.65,400.64,1022.42,434.66z"/>
					</g>
				</g>
			</g>
		</g>
		<g>
			<path class="st7" d="M1034.66,275.84c-29.03,14.38-81.17,61.42-87.13,72.67c-2.52,4.76-3.18,6.84-3.37,8.3
				c-0.53,3.94,2.37,7.58,6.46,8.14c0.14,0.02,0.28,0.02,0.42,0.04c-0.55,0.84-0.94,1.82-1.08,2.88c-0.52,3.94,2.37,7.58,6.46,8.14
				c1,0.14,1.98,0.07,2.89-0.16c-0.27,0.61-0.46,1.25-0.55,1.94c-0.54,3.99,2.35,7.68,6.45,8.24c1.4,0.19,2.75-0.02,3.95-0.52
				c-0.12,0.36-0.2,0.73-0.25,1.12c-0.53,3.94,2.4,7.58,6.53,8.15c1.03,0.14,2.03,0.08,2.96-0.16c-0.04,0.18-0.08,0.36-0.1,0.55
				c-0.53,3.94,2.37,7.58,6.46,8.14c1.5,0.2,2.95-0.04,4.22-0.62c-0.36,3.83,2.48,7.33,6.48,7.87c1.77,0.24,3.48-0.14,4.89-0.96
				c-0.24,3.88,2.55,7.35,6.47,7.88c2.95,0.4,5.72-0.98,7.25-3.32c0.09,3.51,2.92,6.59,6.78,7.12c4.25,0.58,7.54-1.98,8.69-6.82
				c1.99-8.36,5.19-30.98,9.17-45.04c4.99-17.6,14.14-30.22,19.08-44.28C1061.18,315.42,1051.99,267.25,1034.66,275.84z"/>
		</g>
		<g>
			<g>
				<g>
					<g>
						<path class="st8" d="M1091.54,310.85l-17.25-10.6l-4.91,15.97l22.16-4.34c0.31-0.06,0.51-0.24,0.5-0.45
							C1092.05,311.21,1091.85,310.99,1091.54,310.85z"/>
						<path class="st9" d="M1069.19,314.13c0,0,6.85,22.58-6.63,23.09c-6.97,0.26-7.09-6.42-4.66-11.25
							C1059.99,321.81,1069.19,314.13,1069.19,314.13z"/>
						<path class="st9" d="M1065.29,290.1c0,0,13.85,10.05,16.21,1.74c3.89-13.69-7.43-16.86-7.43-16.86s4.4-7.81-4.89-12.46
							c-7.63-3.82-11.78,3.63-11.78,3.63s-5.56-12.15-16.86-8.56c-15.14,4.81-3.08,17.8-3.08,17.8L1065.29,290.1z"/>
						<path class="st7" d="M1074.1,307.6c-7.94,22.37-26.99,26.82-40.56,17.56c-12.82-8.75-17.66-28.2-8.56-40.83
							c6.16-8.54,17.31-13.87,28.45-10.91C1068.1,277.33,1079.42,292.59,1074.1,307.6z"/>
						<g>
							<path class="st10" d="M1070.59,305.65c-2.24,11.2-15.52,18.68-27.2,16.07c-11.68-2.61-19.98-17.57-14.09-28.99
								c5.02-9.74,14.74-13.58,26.42-10.97C1067.4,284.37,1072.83,294.45,1070.59,305.65z"/>
							<g>
								<path class="st11" d="M1062.15,302.95c-0.87,4.72-5.41,7.84-10.13,6.96c-4.72-0.87-7.84-5.41-6.97-10.13
									c0.87-4.72,5.41-7.84,10.14-6.96C1059.9,293.69,1063.02,298.23,1062.15,302.95z"/>
								<path class="st12" d="M1061.03,302.74c-0.63,3.37-3.87,5.6-7.24,4.98c-3.37-0.62-5.6-3.87-4.97-7.24
									c0.62-3.37,3.86-5.6,7.24-4.97C1059.43,296.13,1061.65,299.37,1061.03,302.74z"/>
								<path class="st0" d="M1055.29,299.92c-0.24,1.3-1.5,2.17-2.8,1.92c-1.31-0.24-2.17-1.5-1.93-2.8
									c0.24-1.31,1.5-2.17,2.81-1.93C1054.67,297.35,1055.53,298.61,1055.29,299.92z"/>
							</g>
						</g>
					</g>
				</g>
			</g>
		</g>
		<g>
			<g>
				<path class="st13" d="M969.36,402.54c-13.51-12.78-63.9-26.91-57.88-12.74c-10.43-7.04-18.62-5.82-14.18,5.03
					c-10.28-10.83-17.26-7.06-14.02,0.39c-7.35-7.02-16.34-2.64-12.22,5.31c-11.29-8.35-16.55,4.39-2.58,22.01
					c13.96,17.61,47.19,39.52,73.51,31.23C968.3,445.48,978.39,411.09,969.36,402.54z"/>
			</g>
		</g>
	</g>
</g>
<g>
	<g>
		<g>
			<g>
				<path class="st14" d="M310.76,567.47c-0.11,0.01-0.23,0-0.35-0.03c-0.42-0.14-0.64-0.59-0.51-1.01l1.8-5.46
					c0.14-0.42,0.59-0.64,1.01-0.51c0.42,0.14,0.64,0.59,0.51,1.01l-1.8,5.46C311.32,567.23,311.06,567.44,310.76,567.47z"/>
			</g>
			<g>
				<path class="st14" d="M308.12,583.2c-0.07,0.01-0.15,0.01-0.23-0.01c-0.43-0.07-0.73-0.48-0.65-0.92l2.64-15.72
					c0.07-0.43,0.48-0.73,0.92-0.65c0.43,0.07,0.73,0.48,0.65,0.92l-2.64,15.72C308.75,582.89,308.47,583.15,308.12,583.2z"/>
			</g>
			<g>
				<path class="st14" d="M317.49,586.6c-3.44-0.21-7.85-1.54-9.89-3.65c-0.31-0.32-0.3-0.82,0.02-1.13
					c0.32-0.31,0.82-0.3,1.13,0.02c1.73,1.79,6.25,3.25,9.86,3.19c0.44-0.01,0.8,0.34,0.81,0.78c0.01,0.44-0.34,0.8-0.78,0.81
					C318.27,586.64,317.89,586.63,317.49,586.6z"/>
			</g>
			<g>
				<path class="st14" d="M311.85,584.06c-1.64-0.1-3.11-0.43-4.07-0.97c-0.38-0.22-0.52-0.7-0.3-1.08c0.22-0.38,0.7-0.52,1.09-0.3
					c1.61,0.91,5.88,1.15,9.17,0.11c0.42-0.13,0.87,0.1,1,0.52c0.13,0.42-0.1,0.87-0.52,1
					C316.27,583.95,313.92,584.19,311.85,584.06z"/>
			</g>
			<g>
				<path class="st14" d="M315.98,589.27c-3.5-0.21-5.96-3.29-7.95-5.78c-0.16-0.2-0.32-0.4-0.48-0.59
					c-0.28-0.34-0.22-0.84,0.12-1.12c0.34-0.28,0.84-0.22,1.12,0.12c0.16,0.19,0.32,0.39,0.48,0.6c1.83,2.29,4.11,5.13,6.99,5.19
					c0.44,0.01,0.79,0.37,0.78,0.81c-0.01,0.44-0.37,0.79-0.81,0.78C316.15,589.28,316.06,589.28,315.98,589.27z"/>
			</g>
			<g>
				<path class="st14" d="M308.12,583.2c-0.2-0.01-0.4-0.1-0.54-0.26c-1.4-1.55-2.05-2.91-2.72-4.71c-0.15-0.41,0.06-0.87,0.47-1.02
					c0.41-0.15,0.87,0.06,1.02,0.47c0.62,1.67,1.18,2.83,2.41,4.2c0.29,0.33,0.27,0.83-0.06,1.12
					C308.54,583.14,308.33,583.21,308.12,583.2z"/>
			</g>
		</g>
		<path class="st15" d="M316.25,558.59c-0.47,2.29-2.37,3.84-3.92,3.52c-1.55-0.32-2.67-2.49-2.2-4.79
			c0.48-2.29,2.14-2.74,3.69-2.42C315.37,555.22,316.73,556.3,316.25,558.59z"/>
	</g>
	<g>
		<g>
			<g>
				<path class="st16" d="M325.04,566.16c-0.02,0.01-0.04,0.01-0.07,0.02c-0.43,0.11-0.86-0.14-0.97-0.57l-1.46-5.57
					c-0.11-0.43,0.14-0.86,0.57-0.97c0.43-0.11,0.86,0.14,0.97,0.57l1.46,5.57C325.65,565.61,325.42,566.02,325.04,566.16z"/>
			</g>
			<g>
				<path class="st16" d="M325.04,566.16c-0.31,0.11-0.66,0.02-0.88-0.24c-0.28-0.34-0.23-0.84,0.11-1.12l12.23-10.08
					c0.34-0.28,0.84-0.23,1.12,0.11c0.28,0.34,0.23,0.84-0.11,1.12l-12.23,10.08C325.2,566.08,325.12,566.13,325.04,566.16z"/>
			</g>
			<g>
				<path class="st16" d="M335.67,567.25c-0.26,0.09-0.56,0.05-0.78-0.14c-0.34-0.28-0.38-0.79-0.09-1.12
					c1.73-2.03,2.68-8.44,1.53-10.23c-0.24-0.37-0.13-0.86,0.24-1.1c0.37-0.24,0.86-0.13,1.1,0.24c1.53,2.38,0.55,9.52-1.66,12.12
					C335.92,567.13,335.8,567.21,335.67,567.25z"/>
			</g>
			<g>
				<path class="st16" d="M333.67,565.34c-0.28,0.1-0.59,0.04-0.82-0.18c-0.32-0.3-0.33-0.81-0.02-1.13
					c2.14-2.23,3.86-6.96,3.41-8.48c-0.12-0.42,0.11-0.86,0.54-0.99c0.42-0.12,0.87,0.12,0.99,0.54c0.66,2.22-1.32,7.47-3.79,10.04
					C333.89,565.23,333.78,565.3,333.67,565.34z"/>
			</g>
			<g>
				<path class="st16" d="M338.16,567.22c-0.23,0.08-0.5,0.06-0.72-0.1c-0.36-0.25-0.45-0.75-0.2-1.11c2.19-3.14,0.6-8.31-0.86-10.2
					c-0.27-0.35-0.21-0.85,0.14-1.12c0.35-0.27,0.85-0.21,1.12,0.14c2.01,2.59,3.49,8.39,0.91,12.09
					C338.44,567.07,338.31,567.17,338.16,567.22z"/>
			</g>
		</g>
		<path class="st17" d="M325.65,555.82c0.46,2.3-0.68,4.46-2.24,4.77c-1.55,0.31-3.43-1.25-3.89-3.55c-0.46-2.3,0.9-3.36,2.45-3.67
			C323.52,553.06,325.19,553.52,325.65,555.82z"/>
	</g>
	<g>
		<path class="st15" d="M339.89,532.99c0.31,6.82-1.9,12.76-6,17.02c-3.96,4.12-9.67,6.69-16.61,7c-9.28,0.42-15.85-4.2-20.23-10.69
			c-1.19-1.77-0.86-3.42,1.89-3.66c12.58-1.1,21.2-8.7,22.48-19.84c0.15-1.34,14.13-2.26,15-0.89c0.33,0.51,0.64,1.03,0.91,1.57
			C338.83,526.31,339.73,529.51,339.89,532.99z"/>
		<path class="st18" d="M339.84,533c0.35,6.81-1.73,12.72-5.67,16.94c-2.36-2.2-2.97-15.15,2.45-26.32c0.1-0.21,0.45-0.09,0.66-0.12
			C338.76,526.33,339.66,529.53,339.84,533z"/>
		<g>
			<path class="st19" d="M308.93,542.31c-1.26-0.04-1.49,0.63-1.03,1.43c1.68,2.92,4.45,5.17,8.7,5.45
				c6.47,0.44,11.1-3.28,11.47-8.88c0.12-1.73,0.3-3.78-1.05-4.78C325.08,534.09,314.72,542.48,308.93,542.31z"/>
			<path class="st20" d="M308.97,542.22c-1.26-0.01-1.47,0.63-0.99,1.36c1.75,2.69,4.57,4.72,8.8,4.9
				c6.45,0.26,10.94-3.31,11.15-8.54c0.07-1.62,0.19-3.53-1.18-4.44C324.78,534.18,314.72,542.25,308.97,542.22z"/>
		</g>
	</g>
	<g>
		<g>
			<g>
				<g>
					<g>
						<path class="st21" d="M290.14,495.16c1.15,4.04,7.56,4.36,10.9,3.8c0.35-0.06,0.17-1.17-0.17-1.12
							c-1.93,0.33-3.91,0.23-5.83-0.18c-1.58-0.34-3.98-1.11-4.48-2.87C290.35,494.05,290,494.68,290.14,495.16L290.14,495.16z"/>
					</g>
					<g>
						<path class="st21" d="M295.02,488.87c0,4.26,2.21,8.03,5.95,10.08c0.29,0.16,0.28-0.92-0.03-1.1
							c-3.27-1.79-5.4-4.98-5.41-8.76C295.53,488.59,295.02,488.11,295.02,488.87L295.02,488.87z"/>
					</g>
					<g>
						<path class="st21" d="M300.87,487.5c-2.14,3.22-1.71,7.85-0.09,11.21c0.32,0.66,0.5-0.29,0.34-0.63
							c-1.43-2.96-1.74-6.83,0.14-9.66C301.44,488.17,301.13,487.12,300.87,487.5L300.87,487.5z"/>
					</g>
				</g>
			</g>
		</g>
		<g>
			<path class="st22" d="M359.1,503.62l-10.79-1.77l0.58,8.28l10.35-5.91c0.14-0.08,0.22-0.21,0.19-0.33
				C359.39,503.75,359.27,503.65,359.1,503.62z"/>
			<path class="st23" d="M299.73,507.51c1.78,12.76,13,19.79,27.49,18.92c1.16-0.07,2.33-0.11,3.46-0.25
				c12.87-1.63,20.89-10.37,19.52-21.27c-1.49-11.77-15.41-21.32-28.65-19.64C307.5,487.04,298.18,496.42,299.73,507.51z"/>
			<path class="st24" d="M322.38,508.8c1.53,7.27,6.02,11.66,15.58,10.35c6.73-0.92,12.94-7.32,11.72-13.54
				c-1.33-6.71-9.31-11.73-16.42-10.33C325.7,496.77,321.05,502.47,322.38,508.8z"/>
			<g>
				<path class="st0" d="M341.64,506.63c0.18,2.86-1.99,5.32-4.84,5.5c-2.85,0.18-5.32-1.99-5.5-4.84c-0.18-2.86,1.99-5.32,4.85-5.5
					C339,501.61,341.46,503.78,341.64,506.63z"/>
				<g>
					<path class="st25" d="M341.41,506.63c0.29,2.32-1.35,4.45-3.68,4.74c-2.32,0.29-4.45-1.35-4.74-3.68
						c-0.29-2.33,1.35-4.45,3.68-4.74C338.99,502.65,341.11,504.3,341.41,506.63z"/>
					<path class="st0" d="M337.05,505.73c0.1,0.81-0.47,1.54-1.27,1.64c-0.81,0.1-1.54-0.47-1.64-1.28c-0.1-0.8,0.47-1.54,1.27-1.64
						C336.22,504.36,336.95,504.93,337.05,505.73z"/>
				</g>
			</g>
		</g>
	</g>
</g>
<g>
	<g>
		<g>
			<g>
				<path class="st14" d="M433.87,563.75c-0.23,0.07-0.48,0.04-0.7-0.09c-0.43-0.25-0.58-0.81-0.33-1.24l3.29-5.68
					c0.25-0.43,0.81-0.58,1.24-0.33c0.43,0.25,0.58,0.81,0.33,1.24l-3.29,5.68C434.28,563.54,434.09,563.69,433.87,563.75z"/>
			</g>
			<g>
				<path class="st14" d="M427.53,581.58c-0.17,0.05-0.37,0.05-0.55-0.02c-0.47-0.17-0.72-0.69-0.55-1.16l6.34-17.83
					c0.17-0.47,0.69-0.72,1.16-0.55c0.47,0.17,0.72,0.69,0.55,1.16l-6.34,17.83C428.04,581.3,427.8,581.5,427.53,581.58z"/>
			</g>
			<g>
				<path class="st14" d="M436.16,590.82c-0.12-0.01-0.24-0.03-0.36-0.09c-4.12-2.01-8.91-6.19-9.47-9.43
					c-0.09-0.49,0.25-0.97,0.74-1.05c0.5-0.09,0.97,0.25,1.05,0.74c0.39,2.27,4.43,6.13,8.47,8.1c0.45,0.22,0.64,0.77,0.42,1.22
					C436.85,590.64,436.51,590.83,436.16,590.82z"/>
			</g>
			<g>
				<path class="st14" d="M437.5,588.07c-0.1,0-0.19-0.02-0.28-0.06c-3.38-1.28-9.46-4.07-10.78-6.43
					c-0.25-0.44-0.09-0.99,0.35-1.24c0.44-0.25,0.99-0.09,1.24,0.35c0.76,1.35,5.08,3.82,9.84,5.61c0.47,0.18,0.71,0.7,0.53,1.17
					C438.24,587.86,437.88,588.09,437.5,588.07z"/>
			</g>
			<g>
				<path class="st14" d="M430.78,592.03c-0.26-0.01-0.52-0.14-0.69-0.37c-2.97-3.99-3.57-7.53-3.77-10.46
					c-0.03-0.5,0.34-0.94,0.85-0.97c0.5-0.03,0.94,0.35,0.97,0.85c0.19,2.8,0.73,5.9,3.41,9.5c0.3,0.4,0.22,0.97-0.19,1.27
					C431.19,591.98,430.98,592.04,430.78,592.03z"/>
			</g>
			<g>
				<path class="st14" d="M427.19,582.05c-0.23-0.01-0.46-0.1-0.63-0.29c-1.49-1.61-1.67-3.29-1.84-4.91
					c-0.01-0.14-0.03-0.28-0.05-0.43c-0.06-0.5,0.3-0.95,0.8-1.01c0.5-0.06,0.95,0.3,1.01,0.8c0.02,0.15,0.03,0.3,0.05,0.44
					c0.16,1.51,0.29,2.7,1.37,3.86c0.34,0.37,0.32,0.94-0.05,1.28C427.66,581.98,427.42,582.06,427.19,582.05z"/>
			</g>
		</g>
		<path class="st15" d="M441.22,554.98c-0.51,2.63-2.65,4.43-4.43,4.08c-1.77-0.34-3.09-2.81-2.59-5.44
			c0.51-2.63,2.41-3.17,4.18-2.82C440.17,551.15,441.73,552.35,441.22,554.98z"/>
	</g>
	<g>
		<g>
			<g>
				<path class="st16" d="M463.53,559.28c-0.15-0.03-0.29-0.1-0.41-0.2l-5.01-4.25c-0.38-0.33-0.43-0.9-0.11-1.28
					c0.33-0.38,0.9-0.43,1.28-0.11l5.01,4.25c0.38,0.32,0.43,0.9,0.11,1.28C464.18,559.24,463.85,559.34,463.53,559.28z"/>
			</g>
			<g>
				<path class="st16" d="M479.47,568.25c-0.09-0.02-0.18-0.05-0.27-0.1l-15.93-8.97c-0.44-0.25-0.59-0.8-0.35-1.24
					c0.25-0.44,0.8-0.59,1.24-0.35l15.93,8.96c0.44,0.25,0.59,0.8,0.35,1.24C480.24,568.15,479.84,568.32,479.47,568.25z"/>
			</g>
			<g>
				<path class="st16" d="M479.47,568.25c-0.32-0.06-0.6-0.3-0.7-0.64c-0.14-0.48,0.14-0.99,0.62-1.13
					c2.88-0.83,7.39-5.68,9.35-9.29c0.24-0.44,0.79-0.6,1.24-0.37c0.44,0.24,0.61,0.79,0.36,1.24c-2.18,4.01-7,9.17-10.44,10.17
					C479.76,568.27,479.61,568.27,479.47,568.25z"/>
			</g>
			<g>
				<path class="st16" d="M479.47,568.24c-0.24-0.05-0.45-0.19-0.59-0.4c-0.27-0.42-0.15-0.99,0.28-1.26c1.87-1.2,4.45-5.33,6-9.62
					c0.17-0.47,0.7-0.72,1.17-0.55c0.48,0.17,0.72,0.69,0.55,1.17c-1.41,3.9-4.12,8.86-6.73,10.53
					C479.93,568.25,479.69,568.29,479.47,568.24z"/>
			</g>
			<g>
				<path class="st16" d="M479.47,568.25c-0.35-0.07-0.64-0.35-0.72-0.72c-0.1-0.49,0.22-0.97,0.72-1.07
					c3.49-0.69,7.11-1.4,10.79-4.18c0.4-0.3,0.97-0.22,1.28,0.18c0.3,0.4,0.22,0.97-0.18,1.28c-4.02,3.04-8.01,3.83-11.54,4.52
					C479.7,568.27,479.58,568.27,479.47,568.25z"/>
			</g>
			<g>
				<path class="st16" d="M472.93,570.21c-0.45-0.09-0.77-0.5-0.73-0.97c0.04-0.5,0.48-0.87,0.98-0.83c2.36,0.2,4.54-0.44,5.83-1.71
					c0.36-0.35,0.93-0.35,1.29,0.01c0.35,0.36,0.35,0.93-0.01,1.29c-1.69,1.66-4.34,2.47-7.26,2.22
					C472.99,570.22,472.96,570.22,472.93,570.21z"/>
			</g>
		</g>
		<path class="st17" d="M458.95,548.58c1.73,2.05,1.78,4.84,0.39,6.01c-1.38,1.16-4.13,0.64-5.85-1.41
			c-1.72-2.05-0.95-3.86,0.43-5.03C455.3,546.99,457.23,546.53,458.95,548.58z"/>
	</g>
	<g>
		<path class="st15" d="M468.26,525.79c1.13,7.36-0.57,14.05-4.53,19.15c-3.81,4.92-9.71,8.38-17.2,9.52
			c-10.01,1.54-17.68-2.7-23.19-9.24c-1.5-1.78-1.33-3.61,1.62-4.19c13.51-2.66,21.97-11.9,22.06-24.13
			c0.01-1.47,15.05-4.1,16.17-2.71c0.42,0.51,0.81,1.04,1.17,1.59C466.33,518.67,467.68,522.04,468.26,525.79z"/>
		<path class="st18" d="M468.21,525.81c1.17,7.34-0.4,14-4.17,19.03c-2.82-2.12-4.99-16.08-0.41-28.83
			c0.09-0.24,0.47-0.15,0.71-0.21C466.26,518.7,467.6,522.06,468.21,525.81z"/>
		<g>
			<path class="st19" d="M435.78,539.51c-1.37,0.11-1.55,0.86-0.95,1.67c2.16,2.97,5.43,5.08,10.07,4.9
				c7.07-0.28,11.65-4.85,11.41-10.96c-0.07-1.89-0.12-4.13-1.69-5.06C452.32,528.71,442.07,539.02,435.78,539.51z"/>
			<path class="st20" d="M435.8,539.4c-1.36,0.14-1.52,0.85-0.91,1.59c2.22,2.71,5.51,4.59,10.11,4.28
				c7.02-0.47,11.47-4.86,11.09-10.56c-0.12-1.76-0.21-3.85-1.79-4.68C452.01,528.85,442.05,538.76,435.8,539.4z"/>
		</g>
	</g>
	<g>
		<g>
			<g>
				<g>
					<g>
						<path class="st21" d="M416.49,491.1c0.78,1.92,2.75,2.6,4.66,2.9c2.59,0.41,5.38,0.14,7.89-0.58
							c0.37-0.11,0.05-1.29-0.31-1.19c-2.1,0.6-4.31,0.83-6.49,0.71c-1.71-0.09-4.58-0.45-5.32-2.29
							C416.6,489.87,416.29,490.59,416.49,491.1L416.49,491.1z"/>
					</g>
					<g>
						<path class="st21" d="M421.05,483.71c0.52,4.73,3.64,7.95,7.92,9.71c0.33,0.13,0.2-1.04-0.16-1.18
							c-3.7-1.52-6.71-4.16-7.17-8.34C421.58,483.35,420.96,482.88,421.05,483.71L421.05,483.71z"/>
					</g>
					<g>
						<path class="st21" d="M427.24,481.54c-1.94,3.73-0.62,8.27,1.5,11.64c0.43,0.68,0.51-0.37,0.29-0.72
							c-1.87-2.96-2.96-6.68-1.26-9.96C427.93,482.2,427.48,481.09,427.24,481.54L427.24,481.54z"/>
					</g>
				</g>
			</g>
		</g>
		<g>
			<path class="st22" d="M491.92,489.86l-11.62,2.02l2.35,6.45l9.53-8.04c0.13-0.11,0.18-0.24,0.13-0.33
				C492.25,489.87,492.1,489.83,491.92,489.86z"/>
			<path class="st22" d="M491.12,501.97l-9.58-4.39l-1.43,4.96l10.99-0.19c0.15,0,0.25-0.05,0.25-0.13
				C491.36,502.14,491.27,502.04,491.12,501.97z"/>
			<path class="st23" d="M428.59,502.54c3.42,13.63,16.4,19.94,32.02,17.31c1.25-0.21,2.51-0.39,3.72-0.68
				c13.76-3.26,21.45-13.68,18.68-25.34c-2.98-12.59-19.19-21.32-33.35-17.96C434.63,479.43,425.61,490.68,428.59,502.54z"/>
			<path class="st24" d="M453.3,501.29c2.51,7.71,7.88,11.94,18.1,9.4c7.19-1.78,13.18-9.45,11.13-16.05
				c-2.22-7.13-11.46-11.64-19.01-9.29C455.5,487.86,451.12,494.59,453.3,501.29z"/>
			<g>
				<path class="st0" d="M473.94,496.7c0.53,3.08-1.54,6-4.61,6.53c-3.07,0.53-6-1.54-6.53-4.61c-0.53-3.08,1.54-6,4.61-6.53
					C470.49,491.56,473.41,493.62,473.94,496.7z"/>
				<g>
					<path class="st25" d="M473.68,496.72c0.59,2.49-0.95,4.98-3.44,5.57c-2.49,0.59-4.98-0.95-5.57-3.44
						c-0.59-2.49,0.95-4.98,3.43-5.57C470.6,492.69,473.09,494.23,473.68,496.72z"/>
					<path class="st0" d="M468.86,496.25c0.2,0.86-0.33,1.73-1.19,1.93c-0.86,0.2-1.73-0.33-1.93-1.19
						c-0.21-0.86,0.33-1.73,1.19-1.93C467.79,494.86,468.65,495.39,468.86,496.25z"/>
				</g>
			</g>
		</g>
	</g>
</g>
<g>
	<g>
		<g>
			<g>
				<path class="st14" d="M661.87,559.09c-0.25,0.04-0.51-0.03-0.72-0.19c-0.42-0.32-0.49-0.92-0.17-1.34l4.22-5.43
					c0.32-0.42,0.92-0.49,1.34-0.17c0.42,0.32,0.49,0.92,0.17,1.34l-4.22,5.43C662.33,558.93,662.11,559.06,661.87,559.09z"/>
			</g>
			<g>
				<path class="st14" d="M652.76,576.71c-0.19,0.03-0.39,0-0.57-0.1c-0.47-0.24-0.65-0.82-0.41-1.29l9.1-17.62
					c0.24-0.47,0.82-0.65,1.29-0.41c0.47,0.24,0.65,0.82,0.41,1.29l-9.11,17.62C653.33,576.49,653.06,576.67,652.76,576.71z"/>
			</g>
			<g>
				<path class="st14" d="M660.42,587.52c-0.13-0.02-0.25-0.07-0.36-0.15c-3.99-2.67-8.37-7.69-8.5-11.13
					c-0.02-0.53,0.39-0.97,0.92-0.99c0.53-0.02,0.97,0.39,0.99,0.92c0.09,2.41,3.73,6.99,7.65,9.61c0.44,0.29,0.56,0.89,0.26,1.32
					C661.16,587.43,660.78,587.58,660.42,587.52z"/>
			</g>
			<g>
				<path class="st14" d="M662.2,584.86c-0.1-0.02-0.2-0.05-0.29-0.1c-3.33-1.8-9.25-5.56-10.29-8.2c-0.19-0.49,0.05-1.04,0.54-1.24
					c0.49-0.19,1.05,0.05,1.24,0.54c0.59,1.51,4.73,4.68,9.42,7.22c0.46,0.25,0.64,0.83,0.38,1.29
					C663,584.74,662.59,584.93,662.2,584.86z"/>
			</g>
			<g>
				<path class="st14" d="M654.66,588.02c-0.27-0.05-0.52-0.21-0.67-0.48c-2.52-4.56-2.64-8.32-2.43-11.4
					c0.04-0.53,0.49-0.92,1.02-0.89c0.52,0.04,0.92,0.49,0.89,1.02c-0.2,2.94-0.08,6.23,2.2,10.34c0.25,0.46,0.09,1.04-0.37,1.3
					C655.09,588.02,654.87,588.05,654.66,588.02z"/>
			</g>
			<g>
				<path class="st14" d="M652.35,577.15c-0.24-0.04-0.46-0.17-0.61-0.39c-1.32-1.88-1.27-3.65-1.22-5.36
					c0.01-0.15,0.01-0.3,0.01-0.45c0.01-0.53,0.45-0.94,0.98-0.93c0.52,0.01,0.94,0.45,0.93,0.98c0,0.16-0.01,0.31-0.01,0.47
					c-0.05,1.59-0.08,2.84,0.87,4.21c0.3,0.43,0.2,1.03-0.23,1.33C652.84,577.14,652.59,577.19,652.35,577.15z"/>
			</g>
		</g>
		<path class="st15" d="M670.75,551.02c-0.9,2.66-3.38,4.22-5.18,3.61c-1.79-0.61-2.81-3.35-1.91-6.01c0.9-2.66,2.95-2.95,4.74-2.34
			C670.2,546.89,671.65,548.37,670.75,551.02z"/>
	</g>
	<g>
		<g>
			<g>
				<path class="st16" d="M693.31,558.64c-0.15-0.05-0.29-0.14-0.4-0.26l-4.6-5.12c-0.35-0.39-0.32-0.99,0.07-1.35
					c0.39-0.35,1-0.32,1.35,0.07l4.6,5.12c0.35,0.39,0.32,0.99-0.07,1.35C693.99,558.69,693.63,558.75,693.31,558.64z"/>
			</g>
			<g>
				<path class="st16" d="M708.59,570.21c-0.09-0.03-0.18-0.08-0.27-0.14l-15.28-11.56c-0.42-0.32-0.5-0.92-0.19-1.34
					c0.32-0.42,0.92-0.5,1.34-0.18l15.28,11.56c0.42,0.32,0.5,0.92,0.18,1.34C709.4,570.22,708.97,570.34,708.59,570.21z"/>
			</g>
			<g>
				<path class="st16" d="M708.59,570.21c-0.33-0.11-0.58-0.4-0.63-0.76c-0.08-0.52,0.28-1.01,0.8-1.08
					c3.11-0.46,8.47-4.85,11.02-8.32c0.31-0.42,0.91-0.52,1.33-0.2c0.42,0.31,0.52,0.91,0.2,1.33c-2.83,3.85-8.57,8.53-12.28,9.08
					C708.88,570.27,708.73,570.26,708.59,570.21z"/>
			</g>
			<g>
				<path class="st16" d="M708.59,570.21c-0.24-0.08-0.44-0.26-0.56-0.5c-0.22-0.48-0.01-1.05,0.46-1.27
					c2.11-0.98,5.38-4.91,7.59-9.14c0.25-0.47,0.82-0.65,1.29-0.4c0.47,0.25,0.65,0.82,0.4,1.29c-2.02,3.85-5.54,8.62-8.48,9.98
					C709.07,570.28,708.81,570.29,708.59,570.21z"/>
			</g>
			<g>
				<path class="st16" d="M708.59,570.21c-0.36-0.12-0.62-0.45-0.64-0.85c-0.03-0.53,0.37-0.98,0.9-1.01
					c3.73-0.22,7.58-0.44,11.79-2.82c0.46-0.26,1.04-0.1,1.3,0.36c0.26,0.46,0.09,1.04-0.36,1.3c-4.6,2.59-8.86,2.84-12.62,3.06
					C708.83,570.27,708.7,570.25,708.59,570.21z"/>
			</g>
			<g>
				<path class="st16" d="M701.52,571.32c-0.45-0.16-0.73-0.63-0.62-1.11c0.11-0.51,0.62-0.84,1.14-0.72
					c2.42,0.54,4.77,0.19,6.29-0.95c0.42-0.32,1.02-0.23,1.34,0.19c0.32,0.42,0.23,1.02-0.19,1.34c-1.99,1.49-4.85,1.96-7.85,1.28
					C701.59,571.35,701.55,571.34,701.52,571.32z"/>
			</g>
		</g>
		<path class="st17" d="M690.06,546.89c1.5,2.37,1.16,5.28-0.44,6.3c-1.6,1.01-4.38,0.08-5.88-2.29c-1.5-2.37-0.44-4.15,1.16-5.16
			C686.5,544.72,688.56,544.52,690.06,546.89z"/>
	</g>
	<g>
		<path class="st15" d="M702.96,524.54c0.13,7.8-2.58,14.51-7.41,19.25c-4.65,4.57-11.27,7.33-19.21,7.46
			c-10.61,0.18-17.97-5.31-22.77-12.87c-1.31-2.07-0.88-3.94,2.28-4.12c14.41-0.85,24.5-9.25,26.33-21.94
			c0.21-1.53,16.21-2.12,17.17-0.53c0.36,0.59,0.69,1.19,0.99,1.82C701.96,516.87,702.88,520.56,702.96,524.54z"/>
		<path class="st18" d="M702.9,524.55c0.18,7.79-2.39,14.48-7.02,19.17c-2.63-2.6-2.9-17.41,3.66-29.99
			c0.12-0.24,0.51-0.09,0.76-0.12C701.88,516.89,702.8,520.57,702.9,524.55z"/>
		<g>
			<path class="st19" d="M667.28,534.19c-1.44-0.08-1.73,0.68-1.23,1.6c1.82,3.39,4.92,6.05,9.76,6.51
				c7.38,0.71,12.79-3.38,13.4-9.77c0.19-1.97,0.46-4.31-1.04-5.49C685.99,525.31,673.89,534.57,667.28,534.19z"/>
			<path class="st20" d="M667.33,534.08c-1.44-0.05-1.69,0.67-1.17,1.52c1.92,3.13,5.07,5.54,9.9,5.88
				c7.36,0.51,12.6-3.42,13.01-9.4c0.13-1.85,0.33-4.03-1.2-5.11C685.65,525.41,673.9,534.3,667.33,534.08z"/>
		</g>
	</g>
	<g>
		<g>
			<g>
				<g>
					<g>
						<path class="st21" d="M654.11,481.18c0.54,2.11,2.49,3.09,4.43,3.67c2.63,0.79,5.57,0.9,8.28,0.52
							c0.4-0.06,0.23-1.34-0.16-1.28c-2.27,0.32-4.59,0.25-6.84-0.18c-1.76-0.33-4.69-1.11-5.2-3.13
							C654.39,479.93,653.97,480.63,654.11,481.18L654.11,481.18z"/>
					</g>
					<g>
						<path class="st21" d="M659.89,474.16c-0.13,4.98,2.66,8.78,6.85,11.2c0.32,0.19,0.35-1.05,0-1.25
							c-3.63-2.1-6.38-5.27-6.26-9.67C660.48,473.86,659.91,473.28,659.89,474.16L659.89,474.16z"/>
					</g>
					<g>
						<path class="st21" d="M666.62,472.79c-2.54,3.6-1.82,8.5-0.09,12.3c0.35,0.76,0.58-0.32,0.4-0.71
							c-1.52-3.34-2.13-7.35,0.1-10.52C667.25,473.56,666.93,472.35,666.62,472.79L666.62,472.79z"/>
					</g>
				</g>
			</g>
		</g>
		<g>
			<path class="st22" d="M733.01,492.25l-12.27-2.38l0.39,9.47l12.01-6.42c0.17-0.09,0.26-0.23,0.23-0.38
				C733.34,492.41,733.2,492.29,733.01,492.25z"/>
			<path class="st23" d="M665.05,494.78c1.62,14.64,14.21,23.03,30.8,22.51c1.33-0.04,2.66-0.05,3.96-0.17
				c14.75-1.44,24.21-11.17,22.99-23.67c-1.32-13.49-16.91-24.85-32.09-23.37C674.59,471.63,663.64,482.04,665.05,494.78z"/>
			<path class="st24" d="M690.89,496.98c1.51,8.36,6.5,13.51,17.47,12.33c7.71-0.83,15.03-7.94,13.82-15.09
				c-1.3-7.71-10.25-13.71-18.43-12.33C695.07,483.35,689.58,489.71,690.89,496.98z"/>
			<g>
				<path class="st0" d="M712.97,495.13c0.11,3.27-2.44,6.01-5.71,6.13c-3.27,0.11-6.01-2.45-6.12-5.71
					c-0.11-3.27,2.45-6.01,5.71-6.12C710.11,489.3,712.85,491.86,712.97,495.13z"/>
				<g>
					<path class="st25" d="M712.7,495.11c0.26,2.67-1.69,5.04-4.36,5.3c-2.67,0.26-5.04-1.69-5.3-4.36
						c-0.26-2.67,1.69-5.04,4.36-5.3C710.07,490.5,712.44,492.45,712.7,495.11z"/>
					<path class="st0" d="M707.75,493.95c0.09,0.92-0.59,1.75-1.51,1.84c-0.92,0.09-1.75-0.59-1.83-1.51
						c-0.09-0.92,0.58-1.75,1.51-1.84C706.84,492.35,707.66,493.03,707.75,493.95z"/>
				</g>
			</g>
		</g>
	</g>
</g>
<g>
	<g>
		<g>
			<g>
				<path class="st16" d="M171.87,569.63c-0.36,0-0.68-0.25-0.77-0.61l-1.38-5.6c-0.11-0.43,0.16-0.86,0.59-0.97
					c0.43-0.11,0.86,0.16,0.97,0.59l1.38,5.6c0.11,0.43-0.16,0.86-0.59,0.97C172,569.62,171.93,569.63,171.87,569.63z"/>
			</g>
			<g>
				<path class="st16" d="M186.06,585.85c-0.09-0.04-0.17-0.1-0.24-0.18l-14.28-16.02c-0.35-0.3-0.58-0.7-0.41-1.11
					c0.17-0.41,0.69-0.59,1.1-0.43l14.77,16.49c0.3,0.33,0.27,0.83-0.06,1.13C186.7,585.95,186.35,585.99,186.06,585.85z"/>
			</g>
			<g>
				<path class="st16" d="M186.3,585.89c-0.33-0.03-0.63-0.27-0.71-0.61c-0.1-0.43,0.16-0.86,0.59-0.96
					c2.19-0.53,4.99-5.99,5.82-9.41c0.1-0.43,0.53-0.69,0.96-0.59c0.43,0.1,0.69,0.54,0.59,0.96c-0.77,3.19-3.7,9.8-7,10.59
					C186.47,585.89,186.38,585.9,186.3,585.89z"/>
			</g>
			<g>
				<path class="st16" d="M186.3,585.89c-0.25-0.02-0.49-0.16-0.63-0.4c-0.22-0.38-0.09-0.87,0.29-1.09
					c1.26-0.73,2.43-4.58,2.83-9.38c0.04-0.44,0.42-0.77,0.86-0.73c0,0,0,0,0,0c0.44,0.04,0.77,0.42,0.73,0.86
					c-0.18,2.1-0.96,9.09-3.63,10.63C186.62,585.87,186.46,585.9,186.3,585.89z"/>
			</g>
			<g>
				<path class="st16" d="M186.3,585.89c-0.36-0.03-0.67-0.31-0.73-0.68c-0.07-0.44,0.24-0.84,0.67-0.91
					c2.88-0.43,6.73-4.48,7.86-7.5c0.15-0.41,0.61-0.62,1.03-0.47c0.41,0.16,0.62,0.62,0.47,1.03c-1.31,3.51-5.58,8-9.12,8.52
					C186.42,585.89,186.36,585.89,186.3,585.89z"/>
			</g>
			<g>
				<path class="st16" d="M182.04,587.66c-0.57-0.05-1.15-0.16-1.73-0.34c-0.42-0.13-0.66-0.58-0.52-1c0.13-0.42,0.58-0.66,1-0.52
					c2.05,0.65,4.26,0.16,5.03-1.11c0.23-0.38,0.72-0.5,1.1-0.27c0.38,0.23,0.5,0.72,0.27,1.1
					C186.26,587.04,184.24,587.84,182.04,587.66z"/>
			</g>
		</g>
		<path class="st17" d="M172.98,558.5c0.31,2.33-0.97,4.43-2.54,4.64c-1.57,0.21-3.36-1.47-3.68-3.8c-0.31-2.33,1.12-3.31,2.69-3.52
			C171.03,555.6,172.67,556.17,172.98,558.5z"/>
	</g>
	<g>
		<g>
			<g>
				<path class="st14" d="M137.79,551.29c-0.37,0-0.7-0.25-0.79-0.62c-0.1-0.43,0.17-0.86,0.6-0.96l5.63-1.27
					c0.43-0.1,0.86,0.17,0.96,0.6c0.1,0.43-0.17,0.86-0.6,0.96l-5.63,1.27C137.9,551.28,137.84,551.29,137.79,551.29z"/>
			</g>
			<g>
				<path class="st14" d="M129.82,565.03c-0.08-0.02-0.16-0.04-0.24-0.09c-0.39-0.21-0.52-0.7-0.31-1.09l7.65-13.73
					c0.22-0.39,0.7-0.52,1.09-0.31c0.39,0.21,0.52,0.7,0.31,1.09l-7.65,13.73C130.5,564.94,130.15,565.09,129.82,565.03z"/>
			</g>
			<g>
				<path class="st14" d="M127.82,564.99c-3.49-0.65-8.37-3.44-9.87-5.98c-0.22-0.38-0.1-0.87,0.28-1.1c0.38-0.22,0.87-0.1,1.1,0.28
					c1.48,2.51,8,5.82,10.42,5.29c0.43-0.1,0.86,0.18,0.95,0.61c0.1,0.43-0.18,0.86-0.61,0.95
					C129.48,565.18,128.69,565.15,127.82,564.99z"/>
			</g>
			<g>
				<path class="st14" d="M129.46,565.01c-2.64-0.49-7.07-4.22-8.67-7.4c-0.2-0.39-0.04-0.88,0.35-1.07
					c0.39-0.2,0.88-0.04,1.07,0.35c1.52,3.01,5.91,6.49,7.75,6.58c0.44,0.02,0.78,0.4,0.76,0.84c-0.02,0.44-0.4,0.78-0.84,0.76
					C129.75,565.05,129.61,565.03,129.46,565.01z"/>
			</g>
			<g>
				<path class="st14" d="M123.54,565.25c-2.55-0.48-5.04-1.61-6.51-3.63c-0.26-0.36-0.18-0.86,0.17-1.12
					c0.36-0.26,0.86-0.18,1.12,0.18c2.49,3.41,8.73,3.65,11.37,2.82c0.42-0.13,0.87,0.1,1,0.53c0.13,0.42-0.1,0.87-0.53,1
					C128.44,565.56,125.96,565.7,123.54,565.25z"/>
			</g>
		</g>
		<path class="st15" d="M147.34,551.31c-2.3,0.5-4.49-0.61-4.83-2.16c-0.34-1.55,1.19-3.47,3.49-3.97c2.3-0.5,3.39,0.85,3.73,2.4
			C150.07,549.13,149.64,550.81,147.34,551.31z"/>
	</g>
	<path class="st15" d="M188.05,543.42c-2.28,6.47-6.56,11.17-11.99,13.59c-5.23,2.34-11.52,2.59-18.1,0.27
		c-8.8-3.1-13.18-9.87-14.82-17.56c-0.44-2.1,0.48-3.51,3.13-2.7c12.13,3.71,23.01-0.13,28.39-10.03
		c0.64-1.19,14.01,3.21,14.31,4.81c0.12,0.6,0.21,1.19,0.26,1.8C189.56,536.8,189.2,540.12,188.05,543.42z"/>
	<path class="st18" d="M188,543.41c-2.23,6.47-6.4,11.19-11.65,13.65c-1.37-2.94,2.93-15.23,12.18-23.59
		c0.17-0.16,0.45,0.08,0.67,0.14C189.5,536.79,189.13,540.1,188,543.41z"/>
	<g>
		<path class="st19" d="M157.02,532.24c-1.03-0.75-1.6-0.32-1.67,0.6c-0.27,3.37,0.75,6.81,4.1,9.46
			c5.11,4.04,11.05,3.59,14.55-0.83c1.08-1.37,2.39-2.96,1.85-4.55C175.06,534.6,161.72,535.66,157.02,532.24z"/>
		<path class="st20" d="M157.1,532.18c-1.04-0.72-1.57-0.32-1.59,0.56c-0.08,3.22,1.1,6.51,4.5,9.06
			c5.19,3.88,10.93,3.48,14.09-0.74c0.98-1.3,2.16-2.82,1.55-4.35C174.76,534.51,161.86,535.47,157.1,532.18z"/>
	</g>
	<g>
		<g>
			<g>
				<g>
					<g>
						<path class="st21" d="M150.55,500.98c0.48,1.88,2.2,2.93,3.89,3.63c2.24,0.92,4.87,1.31,7.27,0.97
							c0.35-0.05,0.2-1.17-0.14-1.13c-2.02,0.28-4.07,0.01-6.01-0.56c-1.62-0.47-4.1-1.44-4.57-3.28
							C150.79,499.88,150.42,500.5,150.55,500.98L150.55,500.98z"/>
					</g>
					<g>
						<path class="st21" d="M155.61,494.8c-0.1,4.37,2.25,8.56,6.03,10.77c0.28,0.16,0.3-0.92,0-1.1c-3.32-1.94-5.61-5.55-5.51-9.43
							C156.13,494.53,155.63,494.03,155.61,494.8L155.61,494.8z"/>
					</g>
					<g>
						<path class="st21" d="M161.52,493.58c-2.3,3.29-1.64,8.28-0.06,11.75c0.31,0.67,0.51-0.28,0.35-0.62
							c-1.4-3.07-1.95-7.29,0.08-10.19C162.08,494.26,161.79,493.2,161.52,493.58L161.52,493.58z"/>
					</g>
				</g>
			</g>
		</g>
		<g>
			<path class="st22" d="M219.37,509.47l-10.84,0.81l1.67,6.32l9.38-6.7c0.13-0.09,0.19-0.21,0.14-0.3
				C219.67,509.51,219.54,509.46,219.37,509.47z"/>
			<path class="st22" d="M217.48,518.8l-8.22-4.9l-1.97,5.29l10.13,0.02c0.14,0,0.24-0.05,0.25-0.14
				C217.68,518.98,217.61,518.88,217.48,518.8z"/>
			<path class="st23" d="M160.12,514.11c1.45,12.86,12.53,20.21,27.11,19.72c1.17-0.04,2.34-0.05,3.48-0.16
				c12.96-1.29,21.25-9.87,20.16-20.85c-1.18-11.85-14.91-21.81-28.24-20.48C168.46,493.75,158.86,502.92,160.12,514.11z"/>
			<path class="st24" d="M182.83,515.99c1.34,7.34,5.73,11.86,15.37,10.8c6.78-0.75,13.19-7.01,12.12-13.28
				c-1.15-6.78-9.04-12.02-16.22-10.8C186.48,504.01,181.66,509.61,182.83,515.99z"/>
			<g>
				<path class="st0" d="M202.23,514.32c0.11,2.87-2.14,5.29-5.01,5.39c-2.87,0.1-5.29-2.14-5.39-5.01
					c-0.11-2.87,2.14-5.29,5.01-5.39C199.71,509.21,202.12,511.45,202.23,514.32z"/>
				<g>
					<path class="st25" d="M201.99,514.31c0.23,2.34-1.47,4.43-3.82,4.66c-2.34,0.23-4.43-1.48-4.66-3.82
						c-0.23-2.34,1.48-4.43,3.82-4.66C199.67,510.26,201.76,511.97,201.99,514.31z"/>
					<path class="st0" d="M197.64,513.3c0.08,0.81-0.51,1.54-1.32,1.62c-0.81,0.08-1.53-0.51-1.61-1.32
						c-0.08-0.81,0.51-1.53,1.32-1.62C196.84,511.89,197.56,512.49,197.64,513.3z"/>
				</g>
			</g>
		</g>
	</g>
</g>
<g>
	<g>
		<g>
			<g>
				<path class="st16" d="M542.48,560.01c-0.22,0.08-0.48,0.06-0.71-0.05c-0.45-0.23-0.62-0.78-0.4-1.23l2.99-5.84
					c0.23-0.45,0.78-0.62,1.23-0.4c0.45,0.23,0.62,0.78,0.4,1.23l-2.99,5.84C542.89,559.78,542.7,559.94,542.48,560.01z"/>
			</g>
			<g>
				<path class="st16" d="M537.08,578.14c-0.17,0.06-0.36,0.07-0.55,0.01c-0.48-0.14-0.76-0.65-0.61-1.13l5.4-18.14
					c0.14-0.48,0.65-0.76,1.13-0.61c0.48,0.14,0.76,0.65,0.61,1.13l-5.41,18.14C537.57,577.84,537.35,578.05,537.08,578.14z"/>
			</g>
			<g>
				<path class="st16" d="M546.18,586.92c-0.12,0-0.25-0.02-0.37-0.07c-4.21-1.79-9.22-5.72-9.94-8.93
					c-0.11-0.49,0.2-0.98,0.69-1.09c0.49-0.11,0.98,0.2,1.09,0.69c0.51,2.24,4.74,5.89,8.88,7.65c0.46,0.2,0.68,0.73,0.48,1.19
					C546.86,586.71,546.53,586.91,546.18,586.92z"/>
			</g>
			<g>
				<path class="st16" d="M547.37,584.11c-0.1,0-0.19-0.01-0.29-0.04c-3.44-1.1-9.66-3.57-11.1-5.86c-0.27-0.42-0.14-0.99,0.29-1.25
					c0.43-0.27,0.99-0.14,1.26,0.29c0.83,1.31,5.27,3.55,10.11,5.09c0.48,0.15,0.74,0.66,0.59,1.14
					C548.11,583.86,547.75,584.1,547.37,584.11z"/>
			</g>
			<g>
				<path class="st16" d="M540.87,588.41c-0.26,0-0.53-0.11-0.71-0.33c-3.17-3.83-3.96-7.33-4.3-10.25c-0.06-0.5,0.3-0.95,0.79-1.01
					c0.5-0.06,0.95,0.3,1.01,0.8c0.33,2.79,1.04,5.85,3.9,9.31c0.32,0.39,0.27,0.96-0.12,1.28
					C541.27,588.34,541.07,588.41,540.87,588.41z"/>
			</g>
			<g>
				<path class="st16" d="M536.76,578.63c-0.23,0-0.46-0.08-0.65-0.26c-1.57-1.53-1.84-3.2-2.1-4.81c-0.02-0.14-0.05-0.28-0.07-0.43
					c-0.08-0.5,0.25-0.96,0.75-1.05c0.49-0.08,0.96,0.25,1.05,0.75c0.03,0.15,0.05,0.29,0.07,0.44c0.24,1.5,0.43,2.68,1.57,3.79
					c0.36,0.35,0.37,0.93,0.02,1.29C537.23,578.54,537,578.63,536.76,578.63z"/>
			</g>
		</g>
		<path class="st17" d="M549.38,550.87c-0.37,2.65-2.42,4.56-4.21,4.31c-1.79-0.25-3.23-2.64-2.86-5.3
			c0.37-2.65,2.24-3.29,4.03-3.04C548.12,547.09,549.75,548.22,549.38,550.87z"/>
	</g>
	<g>
		<g>
			<g>
				<path class="st14" d="M572.77,557.54c-0.15,0-0.3-0.03-0.44-0.11l-5.79-3.09c-0.44-0.24-0.61-0.79-0.37-1.23
					c0.24-0.44,0.79-0.61,1.23-0.37l5.8,3.09c0.44,0.24,0.61,0.79,0.37,1.23C573.39,557.36,573.08,557.53,572.77,557.54z"/>
			</g>
			<g>
				<path class="st14" d="M590.24,562.93c-0.1,0-0.19-0.01-0.28-0.04l-17.47-5.4c-0.48-0.15-0.75-0.66-0.6-1.14
					c0.15-0.48,0.66-0.75,1.14-0.6l17.47,5.4c0.48,0.15,0.75,0.66,0.6,1.14C590.97,562.68,590.62,562.93,590.24,562.93z"/>
			</g>
			<g>
				<path class="st14" d="M590.24,562.93c-0.33,0.01-0.65-0.17-0.82-0.48c-0.24-0.44-0.07-1,0.37-1.23
					c2.64-1.42,6.02-7.11,7.18-11.05c0.14-0.48,0.65-0.76,1.13-0.62c0.48,0.14,0.76,0.65,0.62,1.13
					c-1.28,4.38-4.91,10.44-8.06,12.14C590.52,562.9,590.38,562.93,590.24,562.93z"/>
			</g>
			<g>
				<path class="st14" d="M590.23,562.93c-0.24,0-0.48-0.09-0.66-0.27c-0.35-0.36-0.35-0.93,0-1.29c1.57-1.56,3.22-6.15,3.84-10.67
					c0.07-0.5,0.53-0.85,1.02-0.78c0.5,0.07,0.85,0.53,0.78,1.02c-0.56,4.11-2.16,9.53-4.36,11.71
					C590.69,562.84,590.46,562.93,590.23,562.93z"/>
			</g>
			<g>
				<path class="st14" d="M590.24,562.93c-0.36,0.01-0.7-0.2-0.85-0.55c-0.2-0.46,0.01-1,0.48-1.2c3.27-1.41,6.65-2.86,9.66-6.37
					c0.33-0.38,0.9-0.42,1.28-0.1c0.38,0.33,0.42,0.9,0.1,1.28c-3.28,3.82-7.02,5.43-10.32,6.85
					C590.47,562.91,590.35,562.93,590.24,562.93z"/>
			</g>
			<g>
				<path class="st14" d="M584.26,566.24c-0.46,0.01-0.86-0.33-0.92-0.79c-0.06-0.5,0.29-0.95,0.78-1.02
					c2.35-0.3,4.34-1.39,5.33-2.9c0.28-0.42,0.84-0.54,1.26-0.26c0.42,0.27,0.54,0.84,0.26,1.26c-1.3,1.98-3.71,3.33-6.62,3.71
					C584.32,566.23,584.29,566.24,584.26,566.24z"/>
			</g>
		</g>
		<path class="st15" d="M566.03,548.05c2.12,1.64,2.76,4.36,1.65,5.79c-1.1,1.43-3.9,1.5-6.02-0.14c-2.12-1.64-1.74-3.58-0.64-5.01
			C562.13,547.26,563.91,546.41,566.03,548.05z"/>
	</g>
	<g>
		<path class="st15" d="M578.38,527.15c0.13,7.44-2.45,13.85-7.05,18.37c-4.44,4.37-10.74,7-18.32,7.13
			c-10.13,0.18-17.16-5.05-21.74-12.26c-1.25-1.97-0.84-3.76,2.17-3.93c13.75-0.82,23.37-8.85,25.1-20.96
			c0.2-1.46,15.47-2.04,16.38-0.52c0.34,0.56,0.66,1.14,0.95,1.74C577.42,519.84,578.31,523.35,578.38,527.15z"/>
		<path class="st18" d="M578.33,527.16c0.18,7.43-2.27,13.82-6.68,18.3c-2.51-2.47-2.78-16.61,3.46-28.62
			c0.12-0.23,0.49-0.09,0.73-0.11C577.35,519.85,578.23,523.37,578.33,527.16z"/>
		<g>
			<path class="st19" d="M544.35,536.39c-1.38-0.08-1.65,0.65-1.17,1.53c1.74,3.24,4.7,5.77,9.32,6.2
				c7.04,0.67,12.2-3.24,12.77-9.34c0.18-1.88,0.44-4.11-1-5.24C562.2,527.91,550.66,536.75,544.35,536.39z"/>
			<path class="st20" d="M544.4,536.29c-1.37-0.04-1.62,0.64-1.12,1.45c1.83,2.98,4.84,5.29,9.45,5.6
				c7.02,0.48,12.02-3.28,12.41-8.98c0.12-1.76,0.31-3.85-1.15-4.88C561.87,528,550.67,536.49,544.4,536.29z"/>
		</g>
	</g>
	<g>
		<g>
			<g>
				<g>
					<g>
						<path class="st21" d="M530.63,482.33c2.18,4.9,10.09,3.91,14.27,2.59c0.45-0.14,0.02-1.54-0.42-1.4
							c-2.43,0.77-4.98,1.1-7.52,0.96c-2.04-0.12-4.93-0.66-5.84-2.7C530.72,480.87,530.36,481.74,530.63,482.33L530.63,482.33z"/>
					</g>
					<g>
						<path class="st21" d="M535.92,473.36c0.71,5.27,3.74,9.68,8.89,11.57c0.4,0.15,0.2-1.24-0.23-1.4
							c-4.52-1.66-7.31-5.29-7.94-9.97C536.55,472.9,535.79,472.38,535.92,473.36L535.92,473.36z"/>
					</g>
					<g>
						<path class="st21" d="M543.36,470.51c-2.18,4.37-1.52,10.16,1.17,14.15c0.53,0.79,0.6-0.47,0.33-0.87
							c-2.36-3.5-2.72-8.36-0.83-12.17C544.22,471.25,543.63,469.96,543.36,470.51L543.36,470.51z"/>
					</g>
				</g>
			</g>
		</g>
		<g>
			<path class="st22" d="M605.58,501.24l-11.33-3.75l-0.78,9.01l12.15-4.61c0.17-0.06,0.27-0.19,0.26-0.33
				C605.88,501.43,605.76,501.31,605.58,501.24z"/>
			<path class="st23" d="M540.96,495.34c-0.25,14.05,10.64,23.53,26.4,25.06c1.26,0.12,2.52,0.28,3.77,0.32
				c14.14,0.44,24.27-7.62,24.64-19.6c0.4-12.93-12.97-25.58-27.52-26.03C552.82,474.61,541.18,483.12,540.96,495.34z"/>
			<path class="st24" d="M565.15,500.58c0.41,8.1,4.5,13.58,15.02,13.8c7.4,0.15,15.19-5.69,14.92-12.59
				c-0.29-7.46-8.03-14.22-15.93-13.92C570.77,488.19,564.79,493.54,565.15,500.58z"/>
			<g>
				<path class="st0" d="M586.27,501.52c-0.29,3.11-3.05,5.39-6.15,5.1c-3.11-0.29-5.39-3.05-5.1-6.15c0.29-3.11,3.05-5.39,6.15-5.1
					C584.28,495.66,586.56,498.41,586.27,501.52z"/>
				<g>
					<path class="st25" d="M586.01,501.47c-0.08,2.55-2.21,4.56-4.77,4.48c-2.55-0.08-4.56-2.21-4.48-4.77
						c0.08-2.55,2.21-4.56,4.77-4.48C584.09,496.78,586.09,498.92,586.01,501.47z"/>
					<path class="st0" d="M581.48,499.77c-0.03,0.89-0.77,1.58-1.65,1.55c-0.89-0.03-1.58-0.77-1.55-1.65
						c0.03-0.88,0.77-1.58,1.65-1.55C580.81,498.14,581.5,498.88,581.48,499.77z"/>
				</g>
			</g>
		</g>
	</g>
</g>
</svg>
