<?xml version="1.0" encoding="utf-8"?>
<!-- Generator: Adobe Illustrator 27.0.0, SVG Export Plug-In . SVG Version: 6.00 Build 0)  -->
<svg version="1.1" xmlns="http://www.w3.org/2000/svg" xmlns:xlink="http://www.w3.org/1999/xlink" x="0px" y="0px"
	 viewBox="0 0 201.6 792" style="enable-background:new 0 0 201.6 792;" xml:space="preserve">
<style type="text/css">
	.st0{fill:#FFFFFF;}
	.st1{fill:#FFFFFF;stroke:#000000;stroke-miterlimit:10;}
	.st2{fill:#FAC9CB;}
	.st3{fill:#010101;}
	.st4{fill:#FCDFDF;}
	.st5{fill:none;stroke:#010101;stroke-miterlimit:10;}
	.st6{display:none;}
	.st7{display:inline;}
	.st8{display:inline;fill:#FAC9CB;}
	.st9{display:inline;fill:#010101;}
	.st10{fill:none;stroke:#000000;stroke-miterlimit:10;}
	.st11{display:none;fill:none;stroke:#000000;stroke-miterlimit:10;}
	.st12{display:none;fill:none;stroke:#010101;stroke-miterlimit:10;}
	.st13{display:none;fill:#FAC9CB;}
	.st14{fill:none;stroke:#000000;stroke-width:0.5;stroke-miterlimit:10;}
</style>
<g id="Background">
	<rect id="rectangle" x="0" class="st0" width="201.6" height="792"/>
</g>
<g id="Circles">
	<circle id="circle" class="st1" cx="100.8" cy="698.4" r="64.8"/>
	<circle id="circle_00000181069360205243553000000000618502081868419469_" class="st1" cx="100.8" cy="547.2" r="64.8"/>
	<circle id="circle_00000032636235658683675670000016780516944804854448_" class="st1" cx="100.8" cy="396" r="64.8"/>
	<circle id="circle_00000011730258495458949920000017182230174280188312_" class="st1" cx="100.8" cy="244.8" r="64.8"/>
	<circle id="circle_00000007415461371899897640000000252310637766775742_" class="st1" cx="100.8" cy="93.6" r="64.8"/>
</g>
<g id="Step_5">
	<g>
		<g id="tail_00000070818703127991108140000001379785713871711660_">
			<g>
				<g>
					<path class="st2" d="M147.88,696.31c-0.03-0.02-0.04-0.03-0.07-0.08c-0.1-0.17-0.15-0.43-0.04-0.61
						c0.1-0.19,0.35-0.28,0.69-0.36c0.01,0,0.07-0.01,0.08,0c0.4,0.26,0.98,0.31,1.5,0.17c0.85-0.2,1.48-0.91,1.84-1.8
						c0.35-0.88,0.48-1.94,0.39-2.9c-0.1-0.96-0.5-1.83-1.26-2.24c-0.37-0.21-0.79-0.3-1.14-0.24c0.01,0,0,0,0,0l0,0.01l-0.05,0.14
						c-0.08,0.2-0.13,0.41-0.15,0.63c-0.09,0.87,0.28,1.83,0.95,2.35c0.65,0.54,1.64,0.61,2.47,0.27c0.42-0.16,0.78-0.44,1.05-0.77
						c0.26-0.33,0.42-0.73,0.53-1.23l0.25-1.29c0,0,0.04-0.12,0.1-0.33c0.07-0.21,0.18-0.5,0.37-0.83c0.37-0.68,1.15-1.28,1.86-1.46
						c0.6-0.18,1.01-0.12,1.22-0.07c0.22,0.07,0.26,0.14,0.2,0.19c-0.12,0.11-0.66,0.19-1.19,0.52c0.07-0.02-0.62,0.32-0.97,0.95
						c-0.18,0.29-0.27,0.65-0.33,0.93c-0.05,0.29-0.08,0.49-0.08,0.49l-0.11,0.58c-0.05,0.23-0.03,0.26-0.22,0.99
						c-0.16,0.57-0.49,1.2-0.96,1.64c-0.46,0.44-1.02,0.77-1.63,0.95c-1.18,0.37-2.65,0.15-3.59-0.8c-0.93-0.91-1.33-2.23-1.12-3.49
						c0.05-0.32,0.15-0.62,0.3-0.94l0.19-0.34c0.03-0.06,0.06-0.12,0.1-0.17l0.19-0.06c0.13-0.04,0.25-0.08,0.39-0.1
						c0.1-0.02,0.18-0.03,0.27-0.04c0.7-0.06,1.37,0.17,1.91,0.52c0.54,0.35,0.99,0.88,1.25,1.45c0.27,0.57,0.41,1.17,0.46,1.76
						c0.08,1.18-0.06,2.32-0.51,3.44c-0.23,0.55-0.56,1.09-1,1.53c-0.45,0.45-1.04,0.8-1.66,0.95
						C149.57,696.83,148.65,696.79,147.88,696.31z"/>
				</g>
			</g>
		</g>
		<g id="legs_00000172425519188353957440000004262542712611529149_">
			<path id="leg_00000088097200851451634790000001016261166931899064_" class="st2" d="M131.04,738.14
				c-2.16-0.12-4.33-0.24-6.49-0.36c-0.24-2.76-0.48-5.53-0.72-8.29c3.6-0.96,7.21-1.92,10.81-2.88
				C133.45,730.45,132.25,734.29,131.04,738.14z"/>
			<polyline id="hoof_00000029750545104147246490000011949379523130494882_" class="st3" points="124.56,737.78 124.56,742.26 
				127.59,740.02 130.61,742.26 131.04,738.14 124.56,737.78 			"/>
			<path id="leg_00000118386300383717270700000010907875325611116672_" class="st2" d="M111.58,736.34
				c-2.28-0.12-4.57-0.24-6.85-0.36c-0.12-1.2-0.24-2.4-0.36-3.6c2.76-0.12,5.53-0.24,8.29-0.36
				C112.3,733.45,111.94,734.9,111.58,736.34z"/>
			<polygon id="hoof_00000041259525058459720820000005600965107427084431_" class="st3" points="104.73,735.98 104.73,740.02 
				107.67,738.14 110.49,740.02 111.58,736.34 			"/>
			<path id="leg_00000064331591532505362930000017534264238566800814_" class="st2" d="M92.84,737.78c-2.04,0-4.09,0-6.13,0
				c-0.84-3.36-1.68-6.73-2.52-10.09c3.12,1.2,6.25,2.4,9.37,3.6C93.32,733.45,93.08,735.62,92.84,737.78z"/>
			<polygon id="hoof_00000040564449756484707520000004343303360022795957_" class="st3" points="86.71,737.78 87.55,742.26 
				89.97,740.02 92.58,742.26 92.84,737.78 			"/>
			<path id="leg_00000032614676868762907100000008996899673665663396_" class="st2" d="M79.5,734.54c-1.92,0-3.84,0-5.77,0
				c-0.84-4.57-1.68-9.13-2.52-13.7c3.24,2.04,6.49,4.09,9.73,6.13C80.46,729.49,79.98,732.01,79.5,734.54z"/>
			<polygon id="hoof_00000033330118676316058700000000072729642499659421_" class="st3" points="73.73,734.54 74.81,739.22 
				76.8,737.78 79.1,739.22 79.5,734.54 			"/>
		</g>
		<path id="ear_00000049207462278430368300000016764810448159464619_" class="st2" d="M100.95,678.85c2.15-0.62,3.19-2.89,4.69-6.13
			c0.82-1.77,3.42-7.41,1.08-12.98c-0.47-1.1-1.02-1.95-1.44-2.52c-0.59,0.22-1.47,0.58-2.52,1.08c-2.31,1.1-2.95,1.72-4.69,2.52
			c-2.15,1-2.36,0.6-4.33,1.44c-1.42,0.61-4.25,1.82-5.05,3.6C86.79,670.14,95.38,680.45,100.95,678.85z"/>
		<path id="ear_00000102532196061197308300000003520316332703703714_" class="st2" d="M81.84,666.23c0.64-1.38-0.3-4.6-2.16-6.49
			c-0.88-0.89-1.71-1.24-2.52-2.52c-0.83-1.32-1.03-2.68-1.08-3.6c-1.34,0.07-3.56,0.4-5.77,1.8c-5.23,3.31-5.72,9.65-5.77,10.45
			C66.34,666.32,80.24,669.72,81.84,666.23z"/>
		<path id="body_00000090985010636456525050000014810322917488379308_" class="st4" d="M62.38,667.31
			c-7.64,5.59-7.32,17.19-7.21,21.27c0.56,20.48,17.73,33.68,19.46,34.96c19.34,14.39,42.17,8.73,49.74,6.85
			c7.64-1.9,15.07-3.86,20.19-10.81c6.19-8.42,6.47-20.75,1.44-29.56c-1.03-1.8-3.61-6.18-9.01-9.01
			c-7.56-3.97-15.07-1.99-16.94-1.44c-5.45,0.45-9.37-0.51-11.89-1.44c-3.78-1.39-7.83-3.93-11.89-6.49
			c-1.15-0.72-3.39-2.16-6.68-3.6c0,0-1.9-0.85-3.77-1.45C81.86,665.33,70.16,661.61,62.38,667.31z"/>
		<path id="eye_00000004541277512209775760000004102747758574327992_" class="st5" d="M76.8,669.1c0.02,2.41,1.23,4.28,2.5,4.49
			c1.49,0.25,3.8-1.67,3.99-4.99"/>
		<g id="snout_00000047025496751966321090000003197266254493465271_">
			
				<ellipse id="nose_00000049908437336777089820000016529961864049408644_" transform="matrix(0.4825 -0.8759 0.8759 0.4825 -554.3271 404.0042)" class="st2" cx="64.72" cy="671.1" rx="5.59" ry="8.47"/>
			
				<ellipse id="nostril_00000029744196215356176930000000422106379157017265_" transform="matrix(0.8496 -0.5274 0.5274 0.8496 -342.6041 132.3338)" class="st3" cx="60.76" cy="666.95" rx="2.16" ry="1.26"/>
			
				<ellipse id="nostril_00000029731813988352284910000012397731323430172805_" transform="matrix(0.3089 -0.9511 0.9511 0.3089 -591.9705 527.8558)" class="st3" cx="67.24" cy="671.28" rx="2.16" ry="1.26"/>
		</g>
	</g>
</g>
<g id="Step_4">
	<g id="tail_00000134224943965016904520000010979411328386039944_" class="st6">
		<g class="st7">
			<g>
				<path class="st2" d="M147.88,545.11c-0.03-0.02-0.04-0.03-0.07-0.08c-0.1-0.17-0.15-0.43-0.04-0.61
					c0.1-0.19,0.35-0.28,0.69-0.36c0.01,0,0.07-0.01,0.08,0c0.4,0.26,0.98,0.31,1.5,0.17c0.85-0.2,1.48-0.91,1.84-1.8
					c0.35-0.88,0.48-1.94,0.39-2.9c-0.1-0.96-0.5-1.83-1.26-2.24c-0.37-0.21-0.79-0.3-1.14-0.24c0.01,0,0,0,0,0l0,0.01l-0.05,0.14
					c-0.08,0.2-0.13,0.41-0.15,0.63c-0.09,0.87,0.28,1.83,0.95,2.35c0.65,0.54,1.64,0.61,2.47,0.27c0.42-0.16,0.78-0.44,1.05-0.77
					c0.26-0.33,0.42-0.73,0.53-1.23l0.25-1.29c0,0,0.04-0.12,0.1-0.33c0.07-0.21,0.18-0.5,0.37-0.83c0.37-0.68,1.15-1.28,1.86-1.46
					c0.6-0.18,1.01-0.12,1.22-0.07c0.22,0.07,0.26,0.14,0.2,0.19c-0.12,0.11-0.66,0.19-1.19,0.52c0.07-0.02-0.62,0.32-0.97,0.95
					c-0.18,0.29-0.27,0.65-0.33,0.93c-0.05,0.29-0.08,0.49-0.08,0.49l-0.11,0.58c-0.05,0.23-0.03,0.26-0.22,0.99
					c-0.16,0.57-0.49,1.2-0.96,1.64c-0.46,0.44-1.02,0.77-1.63,0.95c-1.18,0.37-2.65,0.15-3.59-0.8c-0.93-0.91-1.33-2.23-1.12-3.49
					c0.05-0.32,0.15-0.62,0.3-0.94l0.19-0.34c0.03-0.06,0.06-0.12,0.1-0.17l0.19-0.06c0.13-0.04,0.25-0.08,0.39-0.1
					c0.1-0.02,0.18-0.03,0.27-0.04c0.7-0.06,1.37,0.17,1.91,0.52c0.54,0.35,0.99,0.88,1.25,1.45c0.27,0.57,0.41,1.17,0.46,1.76
					c0.08,1.18-0.06,2.32-0.51,3.44c-0.23,0.55-0.56,1.09-1,1.53c-0.45,0.45-1.04,0.8-1.66,0.95
					C149.57,545.63,148.65,545.59,147.88,545.11z"/>
			</g>
		</g>
	</g>
	<g id="legs_00000130630653176816628910000013151416933921289139_">
		<g id="leg_00000127750572028616191780000000988323053182842005_">
			<path d="M133.57,574.84l-1.99,7.31l-1.09,4l-2.63-0.17l-2.59-0.17l-0.26-3.46l-0.36-4.79l4.61-1.41L133.57,574.84 M134.65,573.73
				c-3.6,1.1-7.21,2.2-10.81,3.3c0.24,3.17,0.48,6.33,0.72,9.5c2.16,0.14,4.33,0.28,6.49,0.41
				C132.25,582.54,133.45,578.13,134.65,573.73L134.65,573.73z"/>
		</g>
		<g id="leg_00000004542345505009577780000003035191246553757585_">
			<path d="M111.53,580.04l-0.32,1.79l-0.45,2.51l-2.66-0.2l-2.68-0.2l-0.04-0.54l-0.21-2.98l3.65-0.22L111.53,580.04
				 M112.43,579.23c-2.69,0.16-5.38,0.33-8.06,0.49c0.12,1.64,0.23,3.28,0.35,4.92c2.22,0.16,4.44,0.33,6.66,0.49
				C111.73,583.17,112.08,581.2,112.43,579.23L112.43,579.23z"/>
		</g>
		<g id="leg_00000180329727004631596500000011451955437667772562_">
			<path d="M85.24,576.75l7.51,3.18l-0.08,0.81l-0.52,5.1h-4.85l-0.74-3.24L85.24,576.75 M84.19,575.49
				c0.84,3.7,1.68,7.4,2.52,11.09c2.04,0,4.09,0,6.13,0c0.24-2.38,0.48-4.75,0.72-7.13C90.43,578.13,87.31,576.81,84.19,575.49
				L84.19,575.49z"/>
		</g>
		<g id="leg_00000106847046744254925960000002100105945348788133_">
			<path d="M72.26,570.18l7.85,4.94l-0.6,3.16l-0.63,3.29h-4.52L72.26,570.18 M71.21,568.64c0.84,4.57,1.68,9.13,2.52,13.7
				c1.92,0,3.84,0,5.77,0c0.48-2.52,0.96-5.05,1.44-7.57C77.7,572.72,74.45,570.68,71.21,568.64L71.21,568.64z"/>
		</g>
		<polyline id="hoof_00000183957549749885154370000002123581143165367198_" class="st3" points="124.56,586.58 124.56,591.06 
			127.59,588.82 130.61,591.06 131.04,586.94 124.56,586.58 		"/>
		<polygon id="hoof_00000112594149280809794560000004883125640428797580_" class="st3" points="104.73,583.77 104.73,588.82 
			107.67,586.47 110.49,588.82 111.58,584.22 		"/>
		<polygon id="hoof_00000047750879901558307130000015598571290529051836_" class="st3" points="86.71,586.58 87.55,591.06 
			89.97,588.82 92.58,591.06 92.84,586.58 		"/>
		<polygon id="hoof_00000100383903182224476160000016931252263817877408_" class="st3" points="73.73,582.34 74.81,587.02 
			76.8,585.58 79.1,587.02 79.5,582.34 		"/>
	</g>
	<path id="ear_00000141448398700904663070000017270297233744184960_" class="st2" d="M100.95,527.65c2.15-0.62,3.19-2.89,4.69-6.13
		c0.82-1.77,3.42-7.41,1.08-12.98c-0.47-1.1-1.02-1.95-1.44-2.52c-0.59,0.22-1.47,0.58-2.52,1.08c-2.31,1.1-2.95,1.72-4.69,2.52
		c-2.15,1-2.36,0.6-4.33,1.44c-1.42,0.61-4.25,1.82-5.05,3.6C86.79,518.94,95.38,529.25,100.95,527.65z"/>
	<path id="ear_00000000942313655487418760000010776453833796547212_" class="st2" d="M81.84,515.03c0.64-1.38-0.3-4.6-2.16-6.49
		c-0.88-0.89-1.71-1.24-2.52-2.52c-0.83-1.32-1.03-2.68-1.08-3.6c-1.34,0.07-3.56,0.4-5.77,1.8c-5.23,3.31-5.72,9.65-5.77,10.45
		C66.34,515.12,80.24,518.52,81.84,515.03z"/>
	<path id="body_00000183245143211646502970000010161340516221843850_" class="st4" d="M62.38,516.11
		c-7.64,5.59-7.32,17.19-7.21,21.27c0.56,20.48,17.73,33.68,19.46,34.96c19.34,14.39,42.17,8.73,49.74,6.85
		c7.64-1.9,15.07-3.86,20.19-10.81c6.19-8.42,6.47-20.75,1.44-29.56c-1.03-1.8-3.61-6.18-9.01-9.01
		c-7.56-3.97-15.07-1.99-16.94-1.44c-5.45,0.45-9.37-0.51-11.89-1.44c-3.78-1.39-7.83-3.93-11.89-6.49
		c-1.15-0.72-3.39-2.16-6.68-3.6c0,0-1.9-0.85-3.77-1.45C81.86,514.13,70.16,510.41,62.38,516.11z"/>
	<path id="eye_00000118368872096162420710000015281776318622517684_" class="st5" d="M76.8,517.9c0.02,2.41,1.23,4.28,2.5,4.49
		c1.49,0.25,3.8-1.67,3.99-4.99"/>
	<g id="snout_00000114062992120570115110000007911714134550148768_">
		
			<ellipse id="nose_00000092416301435299831810000018140477390565175944_" transform="matrix(0.4825 -0.8759 0.8759 0.4825 -421.8889 325.7532)" class="st2" cx="64.72" cy="519.9" rx="5.59" ry="8.47"/>
		
			<ellipse id="nostril_00000046300459637274454760000005822388046058903949_" transform="matrix(0.8496 -0.5274 0.5274 0.8496 -262.8634 109.5972)" class="st3" cx="60.76" cy="515.75" rx="2.16" ry="1.26"/>
		
			<ellipse id="nostril_00000098219067422055481400000000124809683989890208_" transform="matrix(0.3089 -0.9511 0.9511 0.3089 -448.1663 423.3654)" class="st3" cx="67.24" cy="520.08" rx="2.16" ry="1.26"/>
	</g>
</g>
<g id="Step_3">
	<g id="tail_00000021120018026603090250000010755700767429885331_" class="st6">
		<g class="st7">
			<g>
				<path class="st2" d="M147.88,393.91c-0.03-0.02-0.04-0.03-0.07-0.08c-0.1-0.17-0.15-0.43-0.04-0.61
					c0.1-0.19,0.35-0.28,0.69-0.36c0.01,0,0.07-0.01,0.08,0c0.4,0.26,0.98,0.31,1.5,0.17c0.85-0.2,1.48-0.91,1.84-1.8
					c0.35-0.88,0.48-1.94,0.39-2.9c-0.1-0.96-0.5-1.83-1.26-2.24c-0.37-0.21-0.79-0.3-1.14-0.24c0.01,0,0,0,0,0l0,0.01l-0.05,0.14
					c-0.08,0.2-0.13,0.41-0.15,0.63c-0.09,0.87,0.28,1.83,0.95,2.35c0.65,0.54,1.64,0.61,2.47,0.27c0.42-0.16,0.78-0.44,1.05-0.77
					c0.26-0.33,0.42-0.73,0.53-1.23l0.25-1.29c0,0,0.04-0.12,0.1-0.33c0.07-0.21,0.18-0.5,0.37-0.83c0.37-0.68,1.15-1.28,1.86-1.46
					c0.6-0.18,1.01-0.12,1.22-0.07c0.22,0.07,0.26,0.14,0.2,0.19c-0.12,0.11-0.66,0.19-1.19,0.52c0.07-0.02-0.62,0.32-0.97,0.95
					c-0.18,0.29-0.27,0.65-0.33,0.93c-0.05,0.29-0.08,0.49-0.08,0.49l-0.11,0.58c-0.05,0.23-0.03,0.26-0.22,0.99
					c-0.16,0.57-0.49,1.2-0.96,1.64c-0.46,0.44-1.02,0.77-1.63,0.95c-1.18,0.37-2.65,0.15-3.59-0.8c-0.93-0.91-1.33-2.23-1.12-3.49
					c0.05-0.32,0.15-0.62,0.3-0.94l0.19-0.34c0.03-0.06,0.06-0.12,0.1-0.17l0.19-0.06c0.13-0.04,0.25-0.08,0.39-0.1
					c0.1-0.02,0.18-0.03,0.27-0.04c0.7-0.06,1.37,0.17,1.91,0.52c0.54,0.35,0.99,0.88,1.25,1.45c0.27,0.57,0.41,1.17,0.46,1.76
					c0.08,1.18-0.06,2.32-0.51,3.44c-0.23,0.55-0.56,1.09-1,1.53c-0.45,0.45-1.04,0.8-1.66,0.95
					C149.57,394.43,148.65,394.39,147.88,393.91z"/>
			</g>
		</g>
	</g>
	<g id="legs_00000108276674395990094260000008600427744119259544_" class="st6">
		<path id="leg_00000024691822598042990070000013146058483717210046_" class="st8" d="M131.04,435.74
			c-2.16-0.12-4.33-0.24-6.49-0.36c-0.24-2.76-0.48-5.53-0.72-8.29c3.6-0.96,7.21-1.92,10.81-2.88
			C133.45,428.05,132.25,431.89,131.04,435.74z"/>
		<polyline id="hoof_00000109715315111311297040000009031744725867226786_" class="st9" points="124.56,435.38 124.56,439.86 
			127.59,437.62 130.61,439.86 131.04,435.74 124.56,435.38 		"/>
		<path id="leg_00000110465518860665557160000012205070731565727876_" class="st8" d="M111.58,433.94
			c-2.28-0.12-4.57-0.24-6.85-0.36c-0.12-1.2-0.24-2.4-0.36-3.6c2.76-0.12,5.53-0.24,8.29-0.36
			C112.3,431.05,111.94,432.5,111.58,433.94z"/>
		<polygon id="hoof_00000039838941442262552560000002497671402282363016_" class="st9" points="104.73,433.58 104.73,437.62 
			107.67,435.74 110.49,437.62 111.58,433.94 		"/>
		<path id="leg_00000080171392623263715780000013765256037090814107_" class="st8" d="M92.84,435.38c-2.04,0-4.09,0-6.13,0
			c-0.84-3.36-1.68-6.73-2.52-10.09c3.12,1.2,6.25,2.4,9.37,3.6C93.32,431.05,93.08,433.22,92.84,435.38z"/>
		<polygon id="hoof_00000070118550434216483550000010009902699597140883_" class="st9" points="86.71,435.38 87.55,439.86 
			89.97,437.62 92.58,439.86 92.84,435.38 		"/>
		<path id="leg_00000012432459708310761810000008077306216198076849_" class="st8" d="M79.5,432.14c-1.92,0-3.84,0-5.77,0
			c-0.84-4.57-1.68-9.13-2.52-13.7c3.24,2.04,6.49,4.09,9.73,6.13C80.46,427.09,79.98,429.61,79.5,432.14z"/>
		<polygon id="hoof_00000083081973011461234300000013048257457959858873_" class="st9" points="73.73,432.14 74.81,436.82 
			76.8,435.38 79.1,436.82 79.5,432.14 		"/>
	</g>
	<path id="ear_00000069364378048428913020000017462915237325838980_" class="st10" d="M100.95,376.45c2.15-0.62,3.19-2.89,4.69-6.13
		c0.82-1.77,3.42-7.41,1.08-12.98c-0.47-1.1-1.02-1.95-1.44-2.52c-0.59,0.22-1.47,0.58-2.52,1.08c-2.31,1.1-2.95,1.72-4.69,2.52
		c-2.15,1-2.36,0.6-4.33,1.44c-1.42,0.61-4.25,1.82-5.05,3.6C86.79,367.74,95.38,378.05,100.95,376.45z"/>
	<path id="ear_00000088847483019432846480000009640618063187427973_" class="st10" d="M81.84,363.83c0.64-1.38-0.3-4.6-2.16-6.49
		c-0.88-0.89-1.71-1.24-2.52-2.52c-0.83-1.32-1.03-2.68-1.08-3.6c-1.34,0.07-3.56,0.4-5.77,1.8c-5.23,3.31-5.72,9.65-5.77,10.45
		C66.34,363.92,80.24,367.32,81.84,363.83z"/>
	<path id="body_00000096027182851776786150000001951816458996455051_" class="st4" d="M62.38,364.91
		c-7.64,5.59-7.32,17.19-7.21,21.27c0.56,20.48,17.73,33.68,19.46,34.96c19.34,14.39,42.17,8.73,49.74,6.85
		c7.64-1.9,15.07-3.86,20.19-10.81c6.19-8.42,6.47-20.75,1.44-29.56c-1.03-1.8-3.61-6.18-9.01-9.01
		c-7.56-3.97-15.07-1.99-16.94-1.44c-5.45,0.45-9.37-0.51-11.89-1.44c-3.78-1.39-7.83-3.93-11.89-6.49
		c-1.15-0.72-3.39-2.16-6.68-3.6c0,0-1.9-0.85-3.77-1.45C81.86,362.93,70.16,359.21,62.38,364.91z"/>
	<path id="eye_00000002355555863800007780000001932488952048948099_" class="st5" d="M76.8,366.7c0.02,2.41,1.23,4.28,2.5,4.49
		c1.49,0.25,3.8-1.67,3.99-4.99"/>
	<g id="snout_00000142159938428523261630000003639295835135112841_">
		
			<ellipse id="nose_00000121278078243851146070000015470955404465390988_" transform="matrix(0.4825 -0.8759 0.8759 0.4825 -289.4506 247.5021)" class="st2" cx="64.72" cy="368.7" rx="5.59" ry="8.47"/>
		
			<ellipse id="nostril_00000163782738922678438390000014281269051487806648_" transform="matrix(0.8496 -0.5274 0.5274 0.8496 -183.1226 86.8607)" class="st3" cx="60.76" cy="364.55" rx="2.16" ry="1.26"/>
		
			<ellipse id="nostril_00000004543121761244553830000012715399264168641945_" transform="matrix(0.3089 -0.9511 0.9511 0.3089 -304.3621 318.8751)" class="st3" cx="67.24" cy="368.88" rx="2.16" ry="1.26"/>
	</g>
</g>
<g id="Step_2_00000070833529535709510260000003766716672201851270_">
	<g id="tail_00000077307281755890795970000007824099148851559052_" class="st6">
		<g class="st7">
			<g>
				<path class="st2" d="M147.88,242.71c-0.03-0.02-0.04-0.03-0.07-0.08c-0.1-0.17-0.15-0.43-0.04-0.61
					c0.1-0.19,0.35-0.28,0.69-0.36c0.01,0,0.07-0.01,0.08,0c0.4,0.26,0.98,0.31,1.5,0.17c0.85-0.2,1.48-0.91,1.84-1.8
					c0.35-0.88,0.48-1.94,0.39-2.9c-0.1-0.96-0.5-1.83-1.26-2.24c-0.37-0.21-0.79-0.3-1.14-0.24c0.01,0,0,0,0,0l0,0.01l-0.05,0.14
					c-0.08,0.2-0.13,0.41-0.15,0.63c-0.09,0.87,0.28,1.83,0.95,2.35c0.65,0.54,1.64,0.61,2.47,0.27c0.42-0.16,0.78-0.44,1.05-0.77
					c0.26-0.33,0.42-0.73,0.53-1.23l0.25-1.29c0,0,0.04-0.12,0.1-0.33c0.07-0.21,0.18-0.5,0.37-0.83c0.37-0.68,1.15-1.28,1.86-1.46
					c0.6-0.18,1.01-0.12,1.22-0.07c0.22,0.07,0.26,0.14,0.2,0.19c-0.12,0.11-0.66,0.19-1.19,0.52c0.07-0.02-0.62,0.32-0.97,0.95
					c-0.18,0.29-0.27,0.65-0.33,0.93c-0.05,0.29-0.08,0.49-0.08,0.49l-0.11,0.58c-0.05,0.23-0.03,0.26-0.22,0.99
					c-0.16,0.57-0.49,1.2-0.96,1.64c-0.46,0.44-1.02,0.77-1.63,0.95c-1.18,0.37-2.65,0.15-3.59-0.8c-0.93-0.91-1.33-2.23-1.12-3.49
					c0.05-0.32,0.15-0.62,0.3-0.94l0.19-0.34c0.03-0.06,0.06-0.12,0.1-0.17l0.19-0.06c0.13-0.04,0.25-0.08,0.39-0.1
					c0.1-0.02,0.18-0.03,0.27-0.04c0.7-0.06,1.37,0.17,1.91,0.52c0.54,0.35,0.99,0.88,1.25,1.45c0.27,0.57,0.41,1.17,0.46,1.76
					c0.08,1.18-0.06,2.32-0.51,3.44c-0.23,0.55-0.56,1.09-1,1.53c-0.45,0.45-1.04,0.8-1.66,0.95
					C149.57,243.23,148.65,243.19,147.88,242.71z"/>
			</g>
		</g>
	</g>
	<g id="legs_00000104698744453529690830000007812344616286139534_" class="st6">
		<path id="leg_00000090276056221976499820000008252252277490927776_" class="st8" d="M131.04,284.54
			c-2.16-0.12-4.33-0.24-6.49-0.36c-0.24-2.76-0.48-5.53-0.72-8.29c3.6-0.96,7.21-1.92,10.81-2.88
			C133.45,276.85,132.25,280.69,131.04,284.54z"/>
		<polyline id="hoof_00000162343195782790633470000016615466588477146262_" class="st9" points="124.56,284.18 124.56,288.66 
			127.59,286.42 130.61,288.66 131.04,284.54 124.56,284.18 		"/>
		<path id="leg_00000078040622502097397500000012939482263113780615_" class="st8" d="M111.58,282.74
			c-2.28-0.12-4.57-0.24-6.85-0.36c-0.12-1.2-0.24-2.4-0.36-3.6c2.76-0.12,5.53-0.24,8.29-0.36
			C112.3,279.85,111.94,281.3,111.58,282.74z"/>
		<polygon id="hoof_00000058586592979070862400000009701468250802829467_" class="st9" points="104.73,282.38 104.73,286.42 
			107.67,284.54 110.49,286.42 111.58,282.74 		"/>
		<path id="leg_00000178892042536675151740000004951588193741427850_" class="st8" d="M92.84,284.18c-2.04,0-4.09,0-6.13,0
			c-0.84-3.36-1.68-6.73-2.52-10.09c3.12,1.2,6.25,2.4,9.37,3.6C93.32,279.85,93.08,282.02,92.84,284.18z"/>
		<polygon id="hoof_00000139269025394383051830000011658047639616291493_" class="st9" points="86.71,284.18 87.55,288.66 
			89.97,286.42 92.58,288.66 92.84,284.18 		"/>
		<path id="leg_00000108306360590312473620000009188876745973134497_" class="st8" d="M79.5,280.94c-1.92,0-3.84,0-5.77,0
			c-0.84-4.57-1.68-9.13-2.52-13.7c3.24,2.04,6.49,4.09,9.73,6.13C80.46,275.89,79.98,278.41,79.5,280.94z"/>
		<polygon id="hoof_00000140698062861886803910000003880130022341208457_" class="st9" points="73.73,280.94 74.81,285.62 
			76.8,284.18 79.1,285.62 79.5,280.94 		"/>
	</g>
	<path id="ear_00000063627471421388854390000011006292609740228269_" class="st11" d="M100.95,225.25c2.15-0.62,3.19-2.89,4.69-6.13
		c0.82-1.77,3.42-7.41,1.08-12.98c-0.47-1.1-1.02-1.95-1.44-2.52c-0.59,0.22-1.47,0.58-2.52,1.08c-2.31,1.1-2.95,1.72-4.69,2.52
		c-2.15,1-2.36,0.6-4.33,1.44c-1.42,0.61-4.25,1.82-5.05,3.6C86.79,216.54,95.38,226.85,100.95,225.25z"/>
	<path id="ear_00000129922993719225053140000014456371152815157378_" class="st11" d="M81.84,212.63c0.64-1.38-0.3-4.6-2.16-6.49
		c-0.88-0.89-1.71-1.24-2.52-2.52c-0.83-1.32-1.03-2.68-1.08-3.6c-1.34,0.07-3.56,0.4-5.77,1.8c-5.23,3.31-5.72,9.65-5.77,10.45
		C66.34,212.72,80.24,216.12,81.84,212.63z"/>
	<path id="body_00000021801667033786382140000005533603289087898509_" class="st10" d="M62.38,213.71
		c-7.64,5.59-7.32,17.19-7.21,21.27c0.56,20.48,17.73,33.68,19.46,34.96c19.34,14.39,42.17,8.73,49.74,6.85
		c7.64-1.9,15.07-3.86,20.19-10.81c6.19-8.42,6.47-20.75,1.44-29.56c-1.03-1.8-3.61-6.18-9.01-9.01
		c-7.56-3.97-15.07-1.99-16.94-1.44c-5.45,0.45-9.37-0.51-11.89-1.44c-3.78-1.39-7.83-3.93-11.89-6.49
		c-1.15-0.72-3.39-2.16-6.68-3.6c0,0-1.9-0.85-3.77-1.45C81.86,211.73,70.16,208.01,62.38,213.71z"/>
	<path id="eye_00000106864350782103014310000013653433988764849034_" class="st12" d="M76.8,215.5c0.02,2.41,1.23,4.28,2.5,4.49
		c1.49,0.25,3.8-1.67,3.99-4.99"/>
	<g id="snout_00000137116245550519178720000001157047640492683445_">
		
			<ellipse id="nose_00000105420010504920212120000006349872002002569629_" transform="matrix(0.4825 -0.8759 0.8759 0.4825 -157.0124 169.2511)" class="st2" cx="64.72" cy="217.5" rx="5.59" ry="8.47"/>
		
			<ellipse id="nostril_00000083083437687984084810000002816611805530074775_" transform="matrix(0.8496 -0.5274 0.5274 0.8496 -103.3819 64.1241)" class="st3" cx="60.76" cy="213.35" rx="2.16" ry="1.26"/>
		
			<ellipse id="nostril_00000142890891574547653550000018392719948794619564_" transform="matrix(0.3089 -0.9511 0.9511 0.3089 -160.5579 214.3848)" class="st3" cx="67.24" cy="217.68" rx="2.16" ry="1.26"/>
	</g>
</g>
<g id="Step_1_00000128467909842834634000000000645726132848266904_">
	<g id="tail" class="st6">
		<g class="st7">
			<g>
				<path class="st2" d="M147.88,91.51c-0.03-0.02-0.04-0.03-0.07-0.08c-0.1-0.17-0.15-0.43-0.04-0.61c0.1-0.19,0.35-0.28,0.69-0.36
					c0.01,0,0.07-0.01,0.08,0c0.4,0.26,0.98,0.31,1.5,0.17c0.85-0.2,1.48-0.91,1.84-1.8c0.35-0.88,0.48-1.94,0.39-2.9
					c-0.1-0.96-0.5-1.83-1.26-2.24c-0.37-0.21-0.79-0.3-1.14-0.24c0.01,0,0,0,0,0l0,0.01l-0.05,0.14c-0.08,0.2-0.13,0.41-0.15,0.63
					c-0.09,0.87,0.28,1.83,0.95,2.35c0.65,0.54,1.64,0.61,2.47,0.27c0.42-0.16,0.78-0.44,1.05-0.77c0.26-0.33,0.42-0.73,0.53-1.23
					l0.25-1.29c0,0,0.04-0.12,0.1-0.33c0.07-0.21,0.18-0.5,0.37-0.83c0.37-0.68,1.15-1.28,1.86-1.46c0.6-0.18,1.01-0.12,1.22-0.07
					c0.22,0.07,0.26,0.14,0.2,0.19c-0.12,0.11-0.66,0.19-1.19,0.52c0.07-0.02-0.62,0.32-0.97,0.95c-0.18,0.29-0.27,0.65-0.33,0.93
					c-0.05,0.29-0.08,0.49-0.08,0.49l-0.11,0.58c-0.05,0.23-0.03,0.26-0.22,0.99c-0.16,0.57-0.49,1.2-0.96,1.64
					c-0.46,0.44-1.02,0.77-1.63,0.95c-1.18,0.37-2.65,0.15-3.59-0.8c-0.93-0.91-1.33-2.23-1.12-3.49c0.05-0.32,0.15-0.62,0.3-0.94
					l0.19-0.34c0.03-0.06,0.06-0.12,0.1-0.17l0.19-0.06c0.13-0.04,0.25-0.08,0.39-0.1c0.1-0.02,0.18-0.03,0.27-0.04
					c0.7-0.06,1.37,0.17,1.91,0.52c0.54,0.35,0.99,0.88,1.25,1.45c0.27,0.57,0.41,1.17,0.46,1.76c0.08,1.18-0.06,2.32-0.51,3.44
					c-0.23,0.55-0.56,1.09-1,1.53c-0.45,0.45-1.04,0.8-1.66,0.95C149.57,92.03,148.65,91.99,147.88,91.51z"/>
			</g>
		</g>
	</g>
	<g id="legs" class="st6">
		<path id="leg_00000012449329853361978180000007828964246620848298_" class="st8" d="M131.04,133.34
			c-2.16-0.12-4.33-0.24-6.49-0.36c-0.24-2.76-0.48-5.53-0.72-8.29c3.6-0.96,7.21-1.92,10.81-2.88
			C133.45,125.65,132.25,129.49,131.04,133.34z"/>
		<polyline id="hoof" class="st9" points="124.56,132.98 124.56,137.46 127.59,135.22 130.61,137.46 131.04,133.34 124.56,132.98 		
			"/>
		<path id="leg_00000068653210870421976710000011390698386160325008_" class="st8" d="M111.58,131.54
			c-2.28-0.12-4.57-0.24-6.85-0.36c-0.12-1.2-0.24-2.4-0.36-3.6c2.76-0.12,5.53-0.24,8.29-0.36
			C112.3,128.65,111.94,130.1,111.58,131.54z"/>
		<polygon id="hoof_00000167372542297394182140000018242576143776702906_" class="st9" points="104.73,131.18 104.73,135.22 
			107.67,133.34 110.49,135.22 111.58,131.54 		"/>
		<path id="leg_00000148657507827046691140000006489113729486541225_" class="st8" d="M92.84,132.98c-2.04,0-4.09,0-6.13,0
			c-0.84-3.36-1.68-6.73-2.52-10.09c3.12,1.2,6.25,2.4,9.37,3.6C93.32,128.65,93.08,130.82,92.84,132.98z"/>
		<polygon id="hoof_00000018200974633159174660000008931941332879519883_" class="st9" points="86.71,132.98 87.55,137.46 
			89.97,135.22 92.58,137.46 92.84,132.98 		"/>
		<path id="leg" class="st8" d="M79.5,129.74c-1.92,0-3.84,0-5.77,0c-0.84-4.57-1.68-9.13-2.52-13.7c3.24,2.04,6.49,4.09,9.73,6.13
			C80.46,124.69,79.98,127.21,79.5,129.74z"/>
		<polygon id="hoof_00000105392016514622949450000004957448551877947565_" class="st9" points="73.73,129.74 74.81,134.42 
			76.8,132.98 79.1,134.42 79.5,129.74 		"/>
	</g>
	<path id="ear_00000025419074319995359910000000775265333466342555_" class="st13" d="M100.95,74.05c2.15-0.62,3.19-2.89,4.69-6.13
		c0.82-1.77,3.42-7.41,1.08-12.98c-0.47-1.1-1.02-1.95-1.44-2.52c-0.59,0.22-1.47,0.58-2.52,1.08c-2.31,1.1-2.95,1.72-4.69,2.52
		c-2.15,1-2.36,0.6-4.33,1.44c-1.42,0.61-4.25,1.82-5.05,3.6C86.79,65.34,95.38,75.65,100.95,74.05z"/>
	<path id="ear_00000164506934209579578620000005583355229248907930_" class="st13" d="M81.84,61.43c0.64-1.38-0.3-4.6-2.16-6.49
		c-0.88-0.89-1.71-1.24-2.52-2.52c-0.83-1.32-1.03-2.68-1.08-3.6c-1.34,0.07-3.56,0.4-5.77,1.8c-5.23,3.31-5.72,9.65-5.77,10.45
		C66.34,61.52,80.24,64.92,81.84,61.43z"/>
	<path id="body" class="st11" d="M62.38,62.51c-7.64,5.59-7.32,17.19-7.21,21.27c0.56,20.48,17.73,33.68,19.46,34.96
		c19.34,14.39,42.17,8.73,49.74,6.85c7.64-1.9,15.07-3.86,20.19-10.81c6.19-8.42,6.47-20.75,1.44-29.56
		c-1.03-1.8-3.61-6.18-9.01-9.01c-7.56-3.97-15.07-1.99-16.94-1.44c-5.45,0.45-9.37-0.51-11.89-1.44
		c-3.78-1.39-7.83-3.93-11.89-6.49c-1.15-0.72-3.39-2.16-6.68-3.6c0,0-1.9-0.85-3.77-1.45C81.86,60.53,70.16,56.81,62.38,62.51z"/>
	<path id="eye_00000150805963872133464240000004902544637242025916_" class="st12" d="M76.8,64.3c0.02,2.41,1.23,4.28,2.5,4.49
		c1.49,0.25,3.8-1.67,3.99-4.99"/>
	<g id="snout">
		
			<ellipse id="nose_00000087394020847150788660000007324281750593238941_" transform="matrix(0.4825 -0.8759 0.8759 0.4825 -24.5741 91)" class="st14" cx="64.72" cy="66.3" rx="5.59" ry="8.47"/>
		
			<ellipse id="nostril_00000114041976048792350600000008812837688377820837_" transform="matrix(0.8496 -0.5274 0.5274 0.8496 -24.1685 41.5379)" cx="60.76" cy="63.15" rx="2.16" ry="1.26"/>
		
			<ellipse id="nostril_00000165213899040954928200000000611745775836944293_" transform="matrix(0.3089 -0.9511 0.9511 0.3089 -16.7537 109.8944)" cx="67.24" cy="66.48" rx="2.16" ry="1.26"/>
	</g>
</g>
</svg>
