<?xml version="1.0" encoding="utf-8"?>
<!-- Generator: Adobe Illustrator 27.0.0, SVG Export Plug-In . SVG Version: 6.00 Build 0)  -->
<svg version="1.1" xmlns="http://www.w3.org/2000/svg" xmlns:xlink="http://www.w3.org/1999/xlink" x="0px" y="0px"
	 viewBox="0 0 201.6 792" style="enable-background:new 0 0 201.6 792;" xml:space="preserve">
<style type="text/css">
	.st0{fill:#FFFFFF;}
	.st1{fill:#FFFFFF;stroke:#231F20;stroke-miterlimit:10;}
	.st2{fill:none;stroke:#000000;stroke-miterlimit:10;}
	.st3{fill:#F28080;}
	.st4{fill:#F0B81B;}
	.st5{fill:#D84241;}
	.st6{fill:none;stroke:#231F20;stroke-miterlimit:10;}
	.st7{stroke:#231F20;stroke-miterlimit:10;}
</style>
<g id="Background">
	<rect class="st0" width="201.6" height="792"/>
</g>
<g id="Circles">
	<circle id="Step_1_00000077311372302284843570000013283040246704364200_" class="st1" cx="100.8" cy="698.4" r="64.8"/>
	<circle id="Step_2_00000174600153414022057850000012189695168622377095_" class="st1" cx="100.8" cy="547.2" r="64.8"/>
	<circle id="Step_3_00000095297524824188833750000010138251265501520519_" class="st1" cx="100.8" cy="396" r="64.8"/>
	<circle id="Step_4_00000034799693993770820300000012035105594402618760_" class="st1" cx="100.8" cy="244.8" r="64.8"/>
	<circle id="Step_5_00000060719598853241248360000016049954986591624364_" class="st1" cx="100.8" cy="93.6" r="64.8"/>
</g>
<g id="Step_5">
	<g id="leg_00000036235012513967937880000004708016099902696892_">
		<path d="M123.99,726.81c0.13,3.1-1.39,5.6-3.43,6.18c-0.93,0.26-2.16,0.17-3.19-0.51c-1.28-0.85-1.95-2.45-1.77-4.14
			C118.4,727.82,121.2,727.32,123.99,726.81z"/>
		<line class="st2" x1="120.64" y1="731.53" x2="123.29" y2="749.96"/>
		<line class="st2" x1="128.14" y1="752.73" x2="123.29" y2="749.96"/>
		<line class="st2" x1="121.91" y1="754.13" x2="123.29" y2="749.96"/>
		<line class="st2" x1="117.75" y1="752.74" x2="123.29" y2="749.96"/>
	</g>
	<g id="leg">
		<path d="M99.41,726.81c-0.13,3.1,1.39,5.6,3.43,6.18c0.93,0.26,2.16,0.17,3.19-0.51c1.28-0.85,1.95-2.45,1.77-4.14
			C105,727.82,102.2,727.32,99.41,726.81z"/>
		<line class="st2" x1="104.6" y1="746.71" x2="104.36" y2="730.05"/>
		<line class="st2" x1="104.6" y1="753.58" x2="104.6" y2="746.71"/>
		<line class="st2" x1="99.21" y1="750.14" x2="104.6" y2="746.71"/>
		<line class="st2" x1="110" y1="751.12" x2="104.6" y2="746.71"/>
	</g>
	<path id="tail" class="st3" d="M73.67,693.9c-24.95-6-50.93-43.26,0.79-3.31c-37.01-28.67-20.62-42.36,3.78,0.02
		c-23.63-40.95-1.82-47.58,2.47,1.08L73.67,693.9z"/>
	<path id="comb" class="st3" d="M118.08,665.1c-1.47-9.8,7.29-25.49,7.08,0c-0.21-21.57,14.38-12.15,6.1,3.24
		c7.9-14.51,19.17-8.63,4.96,4.6L118.08,665.1z"/>
	<polygon id="beak" class="st4" points="147.88,677.48 135.69,673.99 136.67,683.4 	"/>
	<path id="body_00000170253302975436892130000002749912114140036276_" class="st5" d="M74.46,690.59
		c-3.58,3.12,5.34,23.1,21.08,33.82c3.09,2.11,6.79,4.57,12.25,5.39c12.95,1.96,22.87-7.24,24.02-8.33c8.63-8.25,9.38-18.93,9.8-25
		c0.42-5.98,1.1-15.74-5.39-23.53c-4.13-4.95-12.25-10.41-18.14-7.84c-4.9,2.13-7.09,9.31-7.84,11.76
		c-0.89,2.92-0.43,3.32-1.47,6.86c-0.99,3.38-2.41,8.23-5.39,10.78c-4.13,3.54-11.57,2.91-18.63-0.49
		C78.15,689.82,75.52,689.66,74.46,690.59z"/>
	<path id="eye" class="st2" d="M124.21,675.15c0.02,2.36,1.21,4.2,2.45,4.41c1.46,0.25,3.73-1.64,3.92-4.9"/>
</g>
<g id="Step_4_00000097469466683982671410000003686883353842589824_">
	<g id="leg_00000151513298395630726550000011245600615906139520_">
		<path d="M123.99,575.61c0.13,3.1-1.39,5.6-3.43,6.18c-0.93,0.26-2.16,0.17-3.19-0.51c-1.28-0.85-1.95-2.45-1.77-4.14
			C118.4,576.62,121.2,576.12,123.99,575.61z"/>
		<line class="st2" x1="120.64" y1="580.33" x2="123.29" y2="598.76"/>
		<line class="st2" x1="128.14" y1="601.53" x2="123.29" y2="598.76"/>
		<line class="st2" x1="121.91" y1="602.93" x2="123.29" y2="598.76"/>
		<line class="st2" x1="117.75" y1="601.54" x2="123.29" y2="598.76"/>
	</g>
	<g id="leg_00000083054214463826773130000013132432539818817686_">
		<path d="M99.41,575.61c-0.13,3.1,1.39,5.6,3.43,6.18c0.93,0.26,2.16,0.17,3.19-0.51c1.28-0.85,1.95-2.45,1.77-4.14
			C105,576.62,102.2,576.12,99.41,575.61z"/>
		<line class="st2" x1="104.6" y1="595.51" x2="104.36" y2="578.85"/>
		<line class="st2" x1="104.6" y1="602.38" x2="104.6" y2="595.51"/>
		<line class="st2" x1="99.21" y1="598.94" x2="104.6" y2="595.51"/>
		<line class="st2" x1="110" y1="599.92" x2="104.6" y2="595.51"/>
	</g>
	<path id="tail_00000088121263260862682990000001991153024527353789_" class="st6" d="M73.67,542.7c-24.95-6-50.93-43.26,0.79-3.31
		c-37.01-28.67-20.62-42.36,3.78,0.02c-23.63-40.95-1.82-47.58,2.47,1.08L73.67,542.7z"/>
	<polygon id="beak_00000024699287577622324230000009729002914574082209_" class="st4" points="147.88,526.28 135.69,522.79 
		136.67,532.2 	"/>
	<path id="comb_00000067195838626208646000000011947740119213736098_" class="st3" d="M118.08,513.9c-1.47-9.8,7.29-25.49,7.08,0
		c-0.21-21.57,14.38-12.15,6.1,3.24c7.9-14.51,19.17-8.63,4.96,4.6L118.08,513.9z"/>
	<path id="body_00000170241158595167415080000012645497048720420519_" class="st5" d="M74.46,539.39
		c-3.58,3.12,5.34,23.1,21.08,33.82c3.09,2.11,6.79,4.57,12.25,5.39c12.95,1.96,22.87-7.24,24.02-8.33c8.63-8.25,9.38-18.93,9.8-25
		c0.42-5.98,1.1-15.74-5.39-23.53c-4.13-4.95-12.25-10.41-18.14-7.84c-4.9,2.13-7.09,9.31-7.84,11.76
		c-0.89,2.92-0.43,3.32-1.47,6.86c-0.99,3.38-2.41,8.23-5.39,10.78c-4.13,3.54-11.57,2.91-18.63-0.49
		C78.15,538.62,75.52,538.46,74.46,539.39z"/>
	<path id="eye_00000163068942665346130750000014519772650462736822_" class="st2" d="M124.21,523.95c0.02,2.36,1.21,4.2,2.45,4.41
		c1.46,0.25,3.73-1.64,3.92-4.9"/>
</g>
<g id="Step_3">
	<g id="leg_00000122712215948377846680000013458756675660259261_">
		<path class="st7" d="M123.99,424.41c0.13,3.1-1.39,5.6-3.43,6.18c-0.93,0.26-2.16,0.17-3.19-0.51c-1.28-0.85-1.95-2.45-1.77-4.14
			C118.4,425.42,121.2,424.92,123.99,424.41z"/>
		<line class="st6" x1="120.64" y1="429.13" x2="123.29" y2="447.56"/>
		<line class="st6" x1="128.14" y1="450.33" x2="123.29" y2="447.56"/>
		<line class="st6" x1="121.91" y1="451.73" x2="123.29" y2="447.56"/>
		<line class="st6" x1="117.75" y1="450.34" x2="123.29" y2="447.56"/>
	</g>
	<g id="leg_00000056388529146197405260000018397094184895593632_">
		<path class="st7" d="M99.41,424.41c-0.13,3.1,1.39,5.6,3.43,6.18c0.93,0.26,2.16,0.17,3.19-0.51c1.28-0.85,1.95-2.45,1.77-4.14
			C105,425.42,102.2,424.92,99.41,424.41z"/>
		<line class="st6" x1="104.6" y1="444.31" x2="104.36" y2="427.65"/>
		<line class="st6" x1="104.6" y1="451.18" x2="104.6" y2="444.31"/>
		<line class="st6" x1="99.21" y1="447.74" x2="104.6" y2="444.31"/>
		<line class="st6" x1="110" y1="448.72" x2="104.6" y2="444.31"/>
	</g>
	<polygon id="beak_00000101080506459086220280000000619880928458062468_" class="st4" points="147.88,375.08 135.69,371.59 
		136.67,381 	"/>
	<path id="comb_00000133511225334136890180000001258963572141293489_" class="st3" d="M118.08,362.7c-1.47-9.8,7.29-25.49,7.08,0
		c-0.21-21.57,14.38-12.15,6.1,3.24c7.9-14.51,19.17-8.63,4.96,4.6L118.08,362.7z"/>
	<path id="body_00000163784637568783199760000005690234434513686449_" class="st5" d="M74.46,388.19
		c-3.58,3.12,5.34,23.1,21.08,33.82c3.09,2.11,6.79,4.57,12.25,5.39c12.95,1.96,22.87-7.24,24.02-8.33c8.63-8.25,9.38-18.93,9.8-25
		c0.42-5.98,1.1-15.74-5.39-23.53c-4.13-4.95-12.25-10.41-18.14-7.84c-4.9,2.13-7.09,9.31-7.84,11.76
		c-0.89,2.92-0.43,3.32-1.47,6.86c-0.99,3.38-2.41,8.23-5.39,10.78c-4.13,3.54-11.57,2.91-18.63-0.49
		C78.15,387.42,75.52,387.26,74.46,388.19z"/>
	<path id="eye_00000029032001196820119930000014218876878138573728_" class="st2" d="M124.21,372.75c0.02,2.36,1.21,4.2,2.45,4.41
		c1.46,0.25,3.73-1.64,3.92-4.9"/>
</g>
<g id="Step_2">
	<polygon id="beak_00000029033988084387413150000011179713835866739593_" class="st6" points="147.88,223.88 135.69,220.39 
		136.67,229.8 	"/>
	<path id="comb_00000155110564823333727460000004131248854037476487_" class="st6" d="M118.08,211.5c-1.47-9.8,7.29-25.49,7.08,0
		c-0.21-21.57,14.38-12.15,6.1,3.24c7.9-14.51,19.17-8.63,4.96,4.6L118.08,211.5z"/>
	<path id="body_00000031176138597309373240000006219075046115814582_" class="st5" d="M74.46,236.99
		c-3.58,3.12,5.34,23.1,21.08,33.82c3.09,2.11,6.79,4.57,12.25,5.39c12.95,1.96,22.87-7.24,24.02-8.33c8.63-8.25,9.38-18.93,9.8-25
		c0.42-5.98,1.1-15.74-5.39-23.53c-4.13-4.95-12.25-10.41-18.14-7.84c-4.9,2.13-7.09,9.31-7.84,11.76
		c-0.89,2.92-0.43,3.32-1.47,6.86c-0.99,3.38-2.41,8.23-5.39,10.78c-4.13,3.54-11.57,2.91-18.63-0.49
		C78.15,236.22,75.52,236.06,74.46,236.99z"/>
	<path id="eye_00000114787006510485877350000000429486731507233427_" class="st2" d="M124.21,221.55c0.02,2.36,1.21,4.2,2.45,4.41
		c1.46,0.25,3.73-1.64,3.92-4.9"/>
</g>
<g id="Step_1_00000110455391732844817240000002254738453232119476_">
	<path id="body" class="st6" d="M74.46,85.79c-3.58,3.12,5.34,23.1,21.08,33.82c3.09,2.11,6.79,4.57,12.25,5.39
		c12.95,1.96,22.87-7.24,24.02-8.33c8.63-8.25,9.38-18.93,9.8-25c0.42-5.98,1.1-15.74-5.39-23.53c-4.13-4.95-12.25-10.41-18.14-7.84
		c-4.9,2.13-7.09,9.31-7.84,11.76c-0.89,2.92-0.43,3.32-1.47,6.86c-0.99,3.38-2.41,8.23-5.39,10.78
		c-4.13,3.54-11.57,2.91-18.63-0.49C78.15,85.02,75.52,84.86,74.46,85.79z"/>
</g>
</svg>
